<svg xmlns="http://www.w3.org/2000/svg" xmlns:xlink="http://www.w3.org/1999/xlink" width="529" zoomAndPan="magnify" viewBox="0 0 396.75 74.999997" height="100" preserveAspectRatio="xMidYMid meet" version="1.0"><defs><g/><clipPath id="f654f00905"><path d="M 0 0.0234375 L 396.5 0.0234375 L 396.5 74.976562 L 0 74.976562 Z M 0 0.0234375 " clip-rule="nonzero"/></clipPath><clipPath id="8eebe7ddf9"><path d="M 10.550781 1.917969 L 81.71875 1.917969 L 81.71875 73.082031 L 10.550781 73.082031 Z M 10.550781 1.917969 " clip-rule="nonzero"/></clipPath><clipPath id="a3df1b8a9f"><path d="M 46.132812 1.917969 C 26.480469 1.917969 10.550781 17.847656 10.550781 37.5 C 10.550781 57.152344 26.480469 73.082031 46.132812 73.082031 C 65.785156 73.082031 81.71875 57.152344 81.71875 37.5 C 81.71875 17.847656 65.785156 1.917969 46.132812 1.917969 Z M 46.132812 1.917969 " clip-rule="nonzero"/></clipPath><clipPath id="27965319ff"><path d="M 59 7.519531 L 61 7.519531 L 61 11 L 59 11 Z M 59 7.519531 " clip-rule="nonzero"/></clipPath><clipPath id="c0d4b4ff4a"><path d="M 59.914062 7.753906 L 60.988281 7.753906 L 60.988281 9.476562 L 59.914062 9.476562 Z M 59.914062 7.753906 " clip-rule="nonzero"/></clipPath><clipPath id="246788ac46"><path d="M 50.917969 42.015625 L 52.867188 42.015625 L 52.867188 43.980469 L 50.917969 43.980469 Z M 50.917969 42.015625 " clip-rule="nonzero"/></clipPath><clipPath id="34e9269b8a"><path d="M 31.277344 21 L 34 21 L 34 24 L 31.277344 24 Z M 31.277344 21 " clip-rule="nonzero"/></clipPath><clipPath id="c2c94a565c"><path d="M 31.277344 22 L 33 22 L 33 24 L 31.277344 24 Z M 31.277344 22 " clip-rule="nonzero"/></clipPath><clipPath id="23f428739e"><path d="M 0 44 L 106.355469 44 L 106.355469 67.234375 L 0 67.234375 Z M 0 44 " clip-rule="nonzero"/></clipPath></defs><g clip-path="url(#f654f00905)"><path fill="#ffffff" d="M 0 0.0234375 L 396.5 0.0234375 L 396.5 74.976562 L 0 74.976562 Z M 0 0.0234375 " fill-opacity="1" fill-rule="nonzero"/><path fill="#000000" d="M 0 0.0234375 L 396.5 0.0234375 L 396.5 74.976562 L 0 74.976562 Z M 0 0.0234375 " fill-opacity="1" fill-rule="nonzero"/></g><g clip-path="url(#8eebe7ddf9)"><g clip-path="url(#a3df1b8a9f)"><path fill="#004aad" d="M 10.550781 1.917969 L 81.71875 1.917969 L 81.71875 73.082031 L 10.550781 73.082031 Z M 10.550781 1.917969 " fill-opacity="1" fill-rule="nonzero"/></g></g><path fill="#000000" d="M 48.984375 12.191406 C 48.878906 12.289062 48.746094 12.324219 48.671875 12.453125 C 48.59375 12.589844 48.640625 12.769531 48.675781 12.925781 C 48.699219 13.007812 48.714844 13.105469 48.664062 13.171875 C 48.640625 13.210938 48.601562 13.226562 48.574219 13.242188 C 48.316406 13.367188 48.046875 13.429688 47.777344 13.433594 C 47.710938 13.433594 47.636719 13.429688 47.566406 13.398438 C 47.402344 13.316406 47.335938 13.089844 47.320312 12.878906 C 47.296875 12.617188 47.335938 12.332031 47.46875 12.125 C 47.636719 11.867188 47.890625 11.71875 48.085938 11.492188 C 48.242188 11.304688 48.429688 10.925781 48.683594 10.894531 C 49.140625 10.839844 49.316406 11.882812 48.984375 12.191406 " fill-opacity="1" fill-rule="nonzero"/><path fill="#000000" d="M 45.109375 11.613281 C 45.152344 11.914062 45.199219 12.214844 45.320312 12.492188 C 45.4375 12.769531 45.632812 13.023438 45.910156 13.144531 C 46.152344 13.25 46.421875 13.25 46.683594 13.242188 C 47.019531 13.234375 47.367188 13.210938 47.679688 13.074219 C 48.085938 12.902344 48.394531 12.550781 48.585938 12.152344 C 48.78125 11.757812 48.863281 11.320312 48.910156 10.886719 C 48.953125 10.453125 48.96875 10.007812 48.84375 9.589844 C 48.714844 9.167969 48.429688 8.789062 48.023438 8.621094 C 47.726562 8.503906 47.386719 8.511719 47.066406 8.585938 C 46.398438 8.734375 45.820312 9.140625 45.421875 9.6875 C 45.003906 10.265625 45.011719 10.917969 45.109375 11.613281 " fill-opacity="1" fill-rule="nonzero"/><path fill="#000000" d="M 45.101562 11.425781 C 44.988281 11.117188 44.882812 10.796875 44.945312 10.480469 C 44.980469 10.300781 45.070312 10.136719 45.167969 9.988281 C 45.199219 9.941406 45.234375 9.890625 45.273438 9.859375 C 45.339844 9.808594 45.429688 9.785156 45.511719 9.769531 C 46.023438 9.648438 46.726562 9.777344 46.527344 10.460938 C 46.339844 11.140625 45.574219 11.027344 45.101562 11.425781 " fill-opacity="1" fill-rule="nonzero"/><path fill="#000000" d="M 43.773438 9.597656 C 43.398438 9.566406 43 9.589844 42.679688 9.785156 C 42.515625 9.882812 42.378906 10.023438 42.222656 10.144531 C 41.898438 10.390625 41.511719 10.554688 41.105469 10.59375 C 40.722656 10.640625 40.332031 10.578125 39.949219 10.59375 C 39.570312 10.609375 39.15625 10.722656 38.910156 11.019531 C 39.253906 10.960938 39.621094 10.992188 39.949219 11.105469 C 39.464844 11.195312 39.042969 11.582031 38.910156 12.0625 C 39.1875 11.914062 39.507812 12.101562 39.785156 12.257812 C 40.214844 12.5 40.671875 12.679688 41.128906 12.851562 C 40.84375 12.949219 40.59375 13.164062 40.460938 13.433594 C 40.582031 13.316406 40.78125 13.332031 40.949219 13.375 C 41.425781 13.503906 41.863281 13.75 42.351562 13.863281 C 42.753906 13.953125 43.183594 13.9375 43.59375 13.878906 C 43.96875 13.816406 44.351562 13.710938 44.652344 13.472656 C 44.703125 13.429688 44.75 13.382812 44.777344 13.324219 C 44.847656 13.164062 46.007812 13.292969 45.917969 13.144531 C 45.511719 12.5 45.199219 11.402344 45.753906 10.894531 C 45.949219 10.714844 46.390625 9.859375 45.785156 9.589844 C 45.527344 9.476562 45.207031 9.640625 44.953125 9.664062 C 44.554688 9.703125 44.164062 9.621094 43.773438 9.597656 " fill-opacity="1" fill-rule="nonzero"/><path fill="#000000" d="M 45.566406 10.367188 C 45.566406 10.367188 45.070312 12.363281 45.910156 13.136719 C 45.910156 13.136719 44.980469 12.589844 45.109375 11.605469 C 45.234375 10.625 45.324219 10.128906 45.324219 10.128906 L 45.566406 10.367188 " fill-opacity="1" fill-rule="nonzero"/><path fill="#000000" d="M 48.910156 10.886719 C 47.679688 11.027344 46.097656 10.160156 46.097656 10.160156 C 46.097656 10.160156 45.746094 10.625 45.558594 10.367188 C 45.371094 10.113281 45.101562 10.390625 45.101562 10.390625 C 45.101562 10.390625 44.882812 10.015625 45.207031 9.433594 C 45.527344 8.847656 46.039062 8.050781 46.96875 8.007812 C 47.890625 7.960938 49.128906 8.546875 49.316406 9.265625 C 49.503906 9.988281 49.660156 10.4375 48.855469 11.230469 L 48.910156 10.886719 " fill-opacity="1" fill-rule="nonzero"/><g clip-path="url(#27965319ff)"><path fill="#000000" d="M 59.234375 9.417969 C 59.375 9.378906 59.472656 9.257812 59.5625 9.148438 C 59.953125 8.644531 60.28125 8.105469 60.539062 7.527344 C 60.644531 7.632812 60.589844 7.804688 60.539062 7.949219 C 60.378906 8.367188 60.222656 8.78125 60.074219 9.199219 C 60.109375 9.34375 60.230469 9.445312 60.367188 9.5 C 60.5 9.550781 60.652344 9.574219 60.792969 9.589844 C 60.785156 9.679688 60.695312 9.761719 60.613281 9.800781 C 60.53125 9.835938 60.433594 9.828125 60.335938 9.828125 C 60.238281 9.828125 60.140625 9.820312 60.035156 9.820312 C 59.960938 9.820312 59.886719 9.820312 59.824219 9.851562 C 59.707031 9.910156 59.660156 10.078125 59.542969 10.128906 C 59.527344 10.136719 59.511719 10.144531 59.496094 10.136719 C 59.480469 10.128906 59.472656 10.121094 59.464844 10.105469 C 59.382812 9.972656 59.292969 9.835938 59.210938 9.703125 C 59.171875 9.632812 59.179688 9.476562 59.234375 9.417969 " fill-opacity="1" fill-rule="nonzero"/></g><g clip-path="url(#c0d4b4ff4a)"><path fill="#000000" d="M 60.9375 7.789062 C 60.972656 7.804688 60.996094 7.851562 60.988281 7.886719 C 60.980469 7.925781 60.957031 7.960938 60.9375 8 C 60.742188 8.277344 60.539062 8.546875 60.34375 8.824219 C 60.476562 8.816406 60.613281 8.773438 60.734375 8.710938 C 60.777344 8.773438 60.742188 8.863281 60.679688 8.914062 C 60.621094 8.960938 60.546875 8.980469 60.476562 9.011719 C 60.359375 9.066406 60.253906 9.160156 60.191406 9.273438 C 60.164062 9.328125 60.140625 9.378906 60.101562 9.417969 C 60.058594 9.453125 59.992188 9.46875 59.953125 9.425781 C 59.914062 9.386719 59.921875 9.328125 59.9375 9.273438 C 60 8.980469 59.992188 8.570312 60.261719 8.398438 C 60.367188 8.328125 60.46875 8.308594 60.566406 8.226562 C 60.597656 8.179688 60.90625 7.773438 60.9375 7.789062 " fill-opacity="1" fill-rule="nonzero"/></g><path fill="#000000" d="M 44.214844 12.785156 L 45.484375 12.785156 L 48.925781 13.039062 L 46.8125 13.996094 L 45.882812 13.996094 L 44.582031 13.652344 L 44.007812 13.039062 L 44.214844 12.785156 " fill-opacity="1" fill-rule="nonzero"/><path fill="#000000" d="M 47.539062 20.648438 C 47.539062 20.648438 47.109375 21.425781 47.214844 21.960938 L 42.628906 20.648438 L 42.859375 18.726562 L 46.734375 18.839844 L 47.539062 20.648438 " fill-opacity="1" fill-rule="nonzero"/><path fill="#000000" d="M 44.214844 12.785156 C 44.570312 13.464844 45.355469 13.847656 46.128906 13.878906 C 46.902344 13.90625 47.648438 13.652344 48.339844 13.316406 C 48.648438 13.164062 48.941406 13.007812 49.261719 12.910156 C 49.667969 12.789062 50.101562 12.769531 50.523438 12.707031 C 53.691406 12.257812 56.210938 9.410156 59.40625 9.257812 C 59.457031 9.523438 59.660156 9.671875 59.855469 9.898438 C 57.742188 12.222656 54.773438 14.140625 51.804688 15.160156 C 51.085938 15.40625 50.273438 15.675781 49.953125 16.359375 C 49.488281 17.347656 49.71875 18.535156 49.832031 19.621094 C 49.863281 19.90625 49.605469 20.152344 49.351562 20.289062 C 49.097656 20.421875 48.8125 20.460938 48.527344 20.503906 C 47.417969 20.65625 46.300781 20.8125 45.183594 20.773438 C 43.878906 20.730469 42.605469 20.429688 41.335938 20.128906 C 41.308594 19.214844 41.144531 18.277344 41.113281 17.363281 C 40.011719 18.535156 38.070312 18.824219 36.871094 19.890625 C 36.328125 20.371094 35.917969 20.976562 35.429688 21.503906 C 34.941406 22.035156 34.328125 22.507812 33.617188 22.589844 C 33.519531 22.222656 33.292969 21.96875 32.984375 21.757812 C 33.585938 21.171875 33.824219 20.316406 34.253906 19.589844 C 35.121094 18.097656 36.839844 17.339844 38.089844 16.15625 C 38.914062 15.378906 39.546875 14.402344 40.386719 13.636719 C 41.21875 12.886719 43.121094 12.453125 44.214844 12.785156 " fill-opacity="1" fill-rule="nonzero"/><path fill="#000000" d="M 37.738281 29.164062 C 37.320312 25.859375 37.792969 22.441406 39.101562 19.375 C 39.484375 18.472656 40.109375 17.484375 41.089844 17.417969 C 42.042969 17.347656 42.828125 18.257812 43 19.195312 C 43.175781 20.128906 42.890625 21.082031 42.640625 22.003906 C 41.863281 24.898438 41.40625 27.882812 41.285156 30.882812 C 41.082031 30.371094 40.355469 30.207031 39.816406 30.085938 C 39.34375 29.980469 38.863281 29.878906 38.375 29.855469 C 38.160156 29.847656 37.917969 29.847656 37.738281 29.726562 C 37.558594 29.605469 37.566406 29.308594 37.738281 29.164062 " fill-opacity="1" fill-rule="nonzero"/><path fill="#000000" d="M 41.050781 26.285156 C 41.921875 26.0625 42.875 26.179688 43.667969 26.601562 C 44.023438 26.789062 44.34375 27.035156 44.679688 27.261719 C 45.402344 27.734375 46.195312 28.078125 46.984375 28.421875 C 47.558594 28.675781 48.128906 28.925781 48.707031 29.179688 C 49.464844 30.34375 49.246094 31.984375 49.300781 33.371094 C 49.359375 35.207031 49.980469 36.976562 50.605469 38.707031 C 51.363281 38.800781 52.105469 38.800781 52.847656 38.625 C 52.195312 36.542969 52.945312 34.269531 53.289062 32.109375 C 53.632812 29.953125 53.648438 27.492188 52.148438 25.910156 C 51.414062 25.132812 50.410156 24.679688 49.472656 24.15625 C 48.542969 23.632812 47.605469 22.957031 47.214844 21.960938 C 45.664062 21.324219 44.097656 20.78125 42.453125 20.421875 C 42.320312 20.394531 42.167969 20.363281 42.035156 20.40625 C 41.757812 20.492188 41.652344 20.820312 41.59375 21.105469 C 41.234375 22.761719 41.164062 24.589844 41.050781 26.285156 " fill-opacity="1" fill-rule="nonzero"/><path fill="#000000" d="M 36.808594 31.015625 C 36.6875 31.03125 36.5625 31.039062 36.457031 31.105469 C 36.246094 31.25 36.269531 31.570312 36.417969 31.773438 C 36.570312 31.976562 36.800781 32.097656 37.003906 32.238281 C 37.640625 32.710938 37.980469 33.511719 38.667969 33.902344 C 38.914062 34.046875 39.230469 34.121094 39.476562 33.992188 C 39.753906 33.851562 39.859375 33.503906 39.90625 33.191406 C 39.949219 32.875 39.964844 32.539062 40.160156 32.292969 C 40.273438 32.140625 40.4375 32.042969 40.542969 31.886719 C 40.683594 31.675781 40.691406 31.40625 40.691406 31.152344 C 40.691406 30.808594 40.699219 30.453125 40.699219 30.109375 C 40.207031 29.898438 38.691406 29.320312 38.242188 29.765625 C 38.039062 29.960938 38.039062 30.347656 37.800781 30.574219 C 37.527344 30.820312 37.167969 30.980469 36.808594 31.015625 " fill-opacity="1" fill-rule="nonzero"/><path fill="#000000" d="M 54.066406 41.332031 C 54.40625 41.527344 54.796875 41.796875 55.140625 41.625 C 55.402344 41.492188 55.484375 41.128906 55.378906 40.859375 C 55.273438 40.589844 55.027344 40.394531 54.765625 40.269531 C 54.503906 40.140625 54.21875 40.066406 53.949219 39.945312 C 53.304688 39.660156 53.09375 39.179688 52.636719 38.707031 C 52.335938 38.402344 51.265625 38.289062 50.902344 38.527344 C 50.605469 38.730469 50.542969 39.539062 50.445312 39.886719 C 50.253906 40.5625 51.421875 40.65625 51.871094 40.742188 C 52.613281 40.859375 53.402344 40.941406 54.066406 41.332031 " fill-opacity="1" fill-rule="nonzero"/><path fill="#000000" d="M 39.277344 34.683594 C 39 34.496094 38.726562 34.300781 38.472656 34.097656 C 37.328125 33.226562 36.300781 32.148438 35.675781 30.851562 C 35.503906 30.5 35.363281 30.109375 35.421875 29.71875 C 36.359375 30.632812 36.605469 31.488281 37.46875 32.480469 C 38.089844 33.199219 39.15625 34.195312 39.988281 34.675781 C 40.957031 35.238281 41.945312 35.753906 42.933594 36.273438 C 44.539062 37.113281 46.136719 37.957031 47.742188 38.800781 C 48.707031 39.308594 49.675781 39.816406 50.679688 40.253906 C 52.6875 41.128906 54.796875 41.796875 56.863281 42.539062 C 57.335938 42.710938 57.847656 42.824219 58.304688 42.554688 C 58.339844 42.53125 58.328125 42.839844 58.304688 42.886719 C 58.242188 42.976562 58.132812 42.988281 58.042969 43.019531 C 57.800781 43.101562 57.488281 43.042969 57.246094 42.996094 C 56.714844 42.898438 56.210938 42.691406 55.710938 42.496094 L 50.273438 40.394531 C 50.273438 40.394531 42.816406 36.730469 42.800781 36.722656 C 41.609375 36.144531 40.394531 35.449219 39.277344 34.683594 " fill-opacity="1" fill-rule="nonzero"/><path fill="#000000" d="M 39.277344 34.683594 L 39.277344 36.242188 L 40.910156 37.335938 L 42.34375 36.390625 L 39.277344 34.683594 " fill-opacity="1" fill-rule="nonzero"/><path fill="#000000" d="M 39.457031 36.511719 C 40.144531 36.511719 40.699219 37.070312 40.699219 37.757812 C 40.699219 38.445312 40.144531 39 39.457031 39 C 38.769531 39 38.210938 38.445312 38.210938 37.757812 C 38.210938 37.070312 38.769531 36.511719 39.457031 36.511719 " fill-opacity="1" fill-rule="nonzero"/><path fill="#000000" d="M 39.457031 37.1875 C 39.769531 37.1875 40.027344 37.441406 40.027344 37.757812 C 40.027344 38.070312 39.769531 38.328125 39.457031 38.328125 C 39.140625 38.328125 38.886719 38.070312 38.886719 37.757812 C 38.886719 37.441406 39.140625 37.1875 39.457031 37.1875 " fill-opacity="1" fill-rule="nonzero"/><path fill="#000000" d="M 51.457031 40.695312 L 51.617188 41.886719 L 52.964844 42.554688 L 53.964844 41.691406 L 51.457031 40.695312 " fill-opacity="1" fill-rule="nonzero"/><g clip-path="url(#246788ac46)"><path fill="#000000" d="M 51.902344 42.074219 C 52.425781 42.074219 52.855469 42.5 52.855469 43.027344 C 52.855469 43.554688 52.425781 43.980469 51.902344 43.980469 C 51.375 43.980469 50.949219 43.554688 50.949219 43.027344 C 50.949219 42.5 51.375 42.074219 51.902344 42.074219 " fill-opacity="1" fill-rule="nonzero"/></g><path fill="#000000" d="M 51.902344 42.515625 C 52.183594 42.515625 52.410156 42.746094 52.410156 43.027344 C 52.410156 43.308594 52.183594 43.539062 51.902344 43.539062 C 51.621094 43.539062 51.390625 43.308594 51.390625 43.027344 C 51.390625 42.746094 51.621094 42.515625 51.902344 42.515625 " fill-opacity="1" fill-rule="nonzero"/><g clip-path="url(#34e9269b8a)"><path fill="#000000" d="M 33.40625 21.5625 C 33.308594 21.726562 33.195312 21.898438 33.039062 22.003906 C 32.746094 22.207031 32.339844 22.183594 32.035156 22.363281 C 31.757812 22.53125 31.605469 22.828125 31.472656 23.113281 C 31.402344 23.257812 31.335938 23.398438 31.277344 23.542969 C 31.3125 23.570312 31.382812 23.5625 31.425781 23.542969 C 31.472656 23.519531 31.5 23.480469 31.53125 23.4375 C 31.644531 23.300781 31.757812 23.167969 31.875 23.046875 C 31.9375 22.988281 31.996094 22.925781 32.070312 22.898438 C 32.128906 22.875 32.199219 22.867188 32.257812 22.851562 C 32.414062 22.828125 32.566406 22.785156 32.707031 22.730469 C 32.597656 22.835938 32.582031 23.015625 32.527344 23.160156 C 32.453125 23.355469 32.28125 23.503906 32.078125 23.558594 C 32.054688 23.585938 32.070312 23.640625 32.101562 23.660156 C 32.128906 23.683594 32.167969 23.683594 32.207031 23.683594 C 32.394531 23.667969 32.558594 23.558594 32.707031 23.445312 C 32.746094 23.421875 32.785156 23.390625 32.8125 23.363281 C 32.867188 23.308594 32.902344 23.25 32.941406 23.183594 C 32.984375 23.113281 33.023438 23.039062 33.066406 22.972656 C 33.203125 22.738281 33.472656 22.589844 33.707031 22.453125 C 33.734375 22.433594 33.765625 22.417969 33.796875 22.386719 C 33.878906 22.304688 33.886719 22.167969 33.847656 22.066406 C 33.808594 21.960938 33.734375 21.863281 33.667969 21.773438 C 33.601562 21.683594 33.4375 21.667969 33.40625 21.5625 " fill-opacity="1" fill-rule="nonzero"/></g><g clip-path="url(#c2c94a565c)"><path fill="#000000" d="M 31.5625 23.699219 C 31.5625 23.746094 31.570312 23.804688 31.613281 23.828125 C 31.652344 23.84375 31.6875 23.820312 31.71875 23.789062 C 31.816406 23.699219 31.851562 23.558594 31.957031 23.472656 C 32.019531 23.421875 32.101562 23.390625 32.167969 23.347656 C 32.378906 23.210938 32.476562 22.964844 32.558594 22.730469 C 32.566406 22.703125 32.574219 22.671875 32.550781 22.648438 C 32.535156 22.632812 32.511719 22.640625 32.492188 22.648438 C 32.363281 22.679688 32.234375 22.710938 32.109375 22.738281 C 31.972656 22.769531 31.839844 22.808594 31.71875 22.875 C 31.417969 23.070312 31.554688 23.398438 31.5625 23.699219 " fill-opacity="1" fill-rule="nonzero"/></g><g clip-path="url(#23f428739e)"><path fill="#000000" d="M 0.945312 59.398438 C 0.378906 59.398438 -0.207031 59.398438 -0.773438 59.398438 C -1.226562 59.398438 -1.476562 59.417969 -1.273438 60.03125 C -1.136719 60.414062 -2.3125 61.027344 -2.652344 60.734375 C -3.175781 60.300781 -2.789062 60.007812 -2.40625 59.738281 C -2.292969 59.667969 -2.199219 59.578125 -2.085938 59.488281 C -2.222656 59.441406 -2.359375 59.398438 -2.472656 59.375 C -3.105469 59.304688 -3.558594 59.53125 -3.945312 60.054688 C -4.125 60.300781 -4.53125 60.371094 -4.578125 59.964844 C -4.644531 59.351562 -5.144531 59.101562 -5.417969 58.648438 C -5.867188 57.925781 -5.847656 57.496094 -5.324219 56.839844 C -5.03125 56.476562 -4.554688 56.25 -4.625 55.660156 C -4.644531 55.433594 -4.417969 55.34375 -4.214844 55.410156 C -2.992188 55.796875 -2.5625 55.570312 -1.542969 55.164062 C -0.183594 54.597656 1.128906 53.804688 2.691406 53.847656 C 3.074219 53.871094 3.324219 53.714844 3.617188 53.601562 C 5.066406 53.058594 6.515625 52.695312 8.058594 52.421875 C 9.300781 52.195312 10.570312 52.082031 11.816406 51.855469 C 12.765625 51.722656 13.378906 50.859375 14.125 50.273438 C 14.851562 49.683594 15.527344 49.140625 16.503906 49.183594 C 17.183594 49.230469 17.726562 48.890625 18.222656 48.574219 C 19.039062 48.050781 19.945312 47.757812 20.804688 47.351562 C 21.574219 46.988281 22.546875 47.011719 23.433594 46.898438 C 23.953125 46.828125 24.472656 46.828125 25.015625 46.851562 C 25.492188 46.851562 25.921875 46.875 26.195312 46.308594 C 26.328125 46.039062 26.691406 45.675781 27.121094 46.128906 C 27.371094 46.378906 27.53125 46.195312 27.6875 45.992188 C 27.984375 45.605469 28.140625 45.855469 28.34375 46.105469 C 28.550781 46.378906 28.34375 46.921875 28.957031 46.921875 C 29.453125 46.921875 29.90625 46.875 30.203125 46.378906 C 30.292969 46.195312 30.429688 46.039062 30.632812 46.152344 C 30.722656 46.195312 30.746094 46.398438 30.769531 46.535156 C 30.949219 47.488281 30.949219 47.554688 31.898438 47.441406 C 32.464844 47.375 32.851562 47.441406 33.078125 47.960938 C 33.347656 48.550781 33.847656 48.597656 34.390625 48.574219 C 34.910156 48.550781 35.433594 48.550781 35.976562 48.550781 C 36.40625 48.550781 36.746094 48.574219 36.925781 47.984375 C 37.0625 47.507812 37.742188 47.578125 37.902344 48.097656 C 38.082031 48.617188 38.355469 48.640625 38.761719 48.597656 C 40.664062 48.371094 42.589844 48.460938 44.488281 48.347656 C 44.625 48.347656 44.851562 48.371094 44.921875 48.300781 C 45.554688 47.578125 46.164062 47.601562 46.800781 48.277344 C 47.636719 47.847656 48.542969 48.164062 49.402344 48.164062 C 51.304688 48.1875 53.253906 47.714844 55.15625 48.234375 C 55.472656 48.324219 55.835938 48.371094 56.152344 48.277344 C 57.238281 47.960938 58.324219 48.210938 59.390625 48.144531 C 60.429688 48.074219 61.585938 48.324219 62.582031 47.714844 C 62.832031 47.554688 63.082031 47.375 63.375 47.601562 C 63.421875 47.621094 63.464844 47.644531 63.511719 47.644531 C 64.167969 47.78125 63.804688 46.828125 64.484375 46.808594 C 65.027344 46.808594 65.074219 47.621094 65.683594 47.304688 C 66.5 46.875 67.359375 46.808594 68.289062 46.808594 C 68.628906 46.808594 68.992188 46.625 69.351562 46.828125 C 69.464844 46.898438 69.648438 46.828125 69.78125 46.898438 C 70.441406 47.167969 70.734375 46.082031 71.210938 46.398438 C 71.777344 46.785156 72.320312 46.875 72.953125 46.875 C 73.519531 46.875 74.109375 46.828125 74.652344 47.078125 C 74.855469 47.167969 75.058594 47.125 75.148438 46.941406 C 75.375 46.511719 75.625 46.558594 75.917969 46.851562 C 75.988281 46.941406 76.191406 47.101562 76.214844 46.964844 C 76.394531 45.855469 77.097656 46.761719 77.503906 46.601562 C 77.777344 46.511719 77.933594 46.648438 78.023438 46.921875 C 78.25 47.644531 78.863281 47.734375 79.496094 47.78125 C 80.019531 47.804688 80.539062 47.804688 81.082031 47.824219 C 81.375 47.824219 81.714844 47.824219 81.851562 47.554688 C 82.125 47.035156 82.214844 46.648438 82.804688 47.375 C 83.140625 47.804688 84.660156 47.488281 85.066406 47.101562 C 85.363281 46.828125 84.863281 46.582031 85.113281 46.332031 C 85.25 46.195312 85.363281 46.015625 85.566406 46.039062 C 85.835938 46.058594 85.816406 46.285156 85.769531 46.46875 C 85.703125 46.695312 85.589844 46.898438 85.519531 47.125 C 85.382812 47.601562 85.679688 47.824219 86.019531 47.644531 C 86.449219 47.417969 86.628906 47.53125 86.992188 47.78125 C 87.761719 48.277344 88.710938 48.097656 89.503906 47.894531 C 91.25 47.441406 93.015625 47.375 94.757812 47.148438 C 95.914062 47.011719 97.089844 47.125 98.246094 47.28125 C 98.496094 47.304688 98.699219 47.394531 98.925781 47.261719 C 99.582031 46.851562 100.058594 47.351562 100.644531 47.507812 C 101.144531 47.644531 101.847656 47.078125 102.277344 47.464844 C 103.070312 48.144531 104.359375 48.324219 104.5625 49.636719 C 104.632812 50.046875 104.992188 50.25 105.265625 50.519531 C 105.945312 51.175781 106.351562 51.835938 106.058594 52.898438 C 105.875 53.554688 106.058594 54.347656 105.421875 54.84375 C 104.359375 55.707031 103.273438 56.542969 102.207031 57.382812 C 101.777344 57.699219 101.394531 57.335938 100.984375 57.269531 C 99.945312 57.066406 98.96875 56.726562 98.3125 55.84375 C 98.085938 55.523438 97.746094 55.546875 97.429688 55.433594 C 96.480469 55.140625 95.597656 54.710938 94.691406 54.300781 C 93.648438 53.828125 92.425781 53.691406 91.25 53.53125 C 88.984375 53.238281 86.699219 53.304688 84.433594 52.964844 C 83.730469 52.851562 83.007812 52.921875 82.28125 52.921875 C 80.921875 52.898438 79.566406 52.875 78.230469 52.671875 C 77.664062 52.582031 77.460938 52.945312 77.460938 53.417969 C 77.460938 53.871094 77.4375 54.324219 76.894531 54.4375 C 76.304688 54.550781 75.738281 54.484375 75.308594 54.007812 C 75.105469 53.804688 75.011719 53.507812 74.808594 53.328125 C 74.46875 52.988281 74.015625 52.671875 73.542969 52.785156 C 71.617188 53.261719 69.714844 52.71875 67.789062 52.761719 C 66.589844 52.808594 65.390625 52.898438 64.191406 52.988281 C 63.261719 53.058594 62.355469 52.875 61.40625 52.921875 C 60.089844 52.988281 58.734375 52.921875 57.398438 52.988281 C 55.835938 53.078125 54.273438 52.988281 52.730469 53.058594 C 51.507812 53.125 50.285156 53.285156 49.085938 53.464844 C 48.859375 53.488281 48.679688 53.554688 48.429688 53.488281 C 47.570312 53.191406 46.710938 53.304688 45.917969 53.644531 C 44.785156 54.121094 43.5625 53.734375 42.40625 54.144531 C 41.003906 54.640625 39.484375 54.484375 38.035156 54.484375 C 37.695312 54.484375 37.3125 54.4375 37.0625 54.597656 C 35.589844 55.410156 33.960938 55.117188 32.421875 55.390625 C 30.746094 55.660156 29.046875 55.773438 27.394531 56.160156 C 25.605469 56.566406 23.726562 56.703125 21.914062 57.085938 C 20.488281 57.40625 18.992188 57.382812 17.613281 57.902344 C 17.523438 57.925781 17.410156 57.949219 17.339844 57.925781 C 16.050781 57.359375 14.828125 58.242188 13.582031 58.152344 C 12.515625 58.082031 11.542969 58.515625 10.457031 58.445312 C 9.527344 58.402344 8.554688 58.875 7.625 59.191406 C 7.378906 59.285156 7.195312 59.53125 6.878906 59.488281 C 6.699219 59.464844 6.472656 59.464844 6.515625 59.757812 C 6.539062 59.894531 6.628906 60.03125 6.8125 60.03125 C 7.761719 60.007812 7.152344 60.640625 7.082031 60.867188 C 6.925781 61.480469 6.609375 61.027344 6.335938 60.890625 C 6.0625 60.777344 5.972656 60.777344 5.882812 60.734375 C 5.496094 60.550781 5.519531 59.851562 4.953125 59.984375 C 4.546875 60.078125 4.160156 60.28125 3.867188 60.621094 C 3.664062 60.824219 3.414062 61.050781 3.164062 60.710938 C 2.984375 60.484375 2.917969 60.257812 3.234375 59.984375 C 3.664062 59.601562 3.390625 59.417969 2.960938 59.417969 C 2.28125 59.375 1.625 59.398438 0.945312 59.398438 Z M 20.738281 61.707031 C 20.714844 61.933594 20.691406 62.296875 20.421875 62.25 C 19.71875 62.160156 19.128906 62.542969 18.472656 62.613281 C 17.5 62.679688 16.730469 63.335938 15.824219 63.632812 C 15.507812 63.722656 15.1875 64.085938 15.28125 64.558594 C 15.347656 64.96875 15.734375 65.035156 16.027344 65.148438 C 16.433594 65.308594 16.84375 65.171875 17.273438 65.101562 C 18.859375 64.832031 20.441406 64.605469 22.027344 64.402344 C 22.367188 64.355469 22.683594 64.402344 22.980469 64.199219 C 23.453125 63.859375 23.726562 64.0625 23.953125 64.558594 C 24.066406 64.808594 24.222656 65.285156 24.65625 65.125 C 25.105469 64.96875 25.152344 64.628906 24.859375 64.21875 C 24.675781 63.972656 24.859375 63.765625 25.128906 63.746094 C 26.667969 63.585938 28.230469 63.472656 29.773438 63.292969 C 31.152344 63.132812 32.625 63.609375 33.894531 63.066406 C 35.320312 62.453125 36.769531 62.953125 38.171875 62.65625 C 38.761719 62.523438 39.03125 63.496094 39.554688 63.066406 C 39.984375 62.703125 40.4375 62.566406 40.957031 62.476562 C 41.230469 62.429688 41.523438 62.296875 41.796875 62.339844 C 42.226562 62.429688 42.792969 62.386719 42.769531 63.109375 C 42.769531 63.292969 42.925781 63.472656 43.152344 63.449219 C 43.359375 63.425781 43.5625 63.222656 43.515625 63.066406 C 43.222656 62.023438 43.742188 62.046875 44.488281 62.273438 C 44.601562 62.316406 44.808594 62.296875 44.898438 62.203125 C 45.960938 61.480469 47.003906 61.546875 48.023438 62.25 C 48.203125 62.363281 48.40625 62.410156 48.542969 62.273438 C 48.882812 62 48.996094 62.113281 49.269531 62.453125 C 49.722656 63.019531 49.96875 62.929688 50.242188 62.160156 C 50.355469 61.820312 50.511719 61.640625 50.808594 61.660156 C 51.375 61.730469 52.097656 60.960938 52.550781 61.933594 C 52.574219 61.976562 52.84375 62 52.9375 61.933594 C 54.136719 61.09375 55.3125 61.683594 56.46875 61.976562 C 57.011719 62.113281 57.464844 62.386719 57.804688 62.953125 C 58.414062 63.925781 58.484375 63.859375 59.433594 63.199219 C 60.203125 62.65625 60.90625 62.226562 62.0625 62.542969 C 63.101562 62.816406 64.304688 62.769531 65.480469 62.566406 C 66.5 62.386719 67.519531 62.183594 68.652344 62.476562 C 69.511719 62.703125 70.53125 62.953125 71.527344 62.613281 C 72.589844 62.25 72.613281 62.296875 73.316406 63.292969 C 73.675781 63.789062 73.996094 64.085938 74.71875 63.789062 C 75.082031 63.632812 75.804688 63.472656 75.917969 64.332031 C 75.964844 64.671875 76.304688 64.761719 76.597656 64.605469 C 76.960938 64.425781 77.027344 64.152344 76.757812 63.789062 C 76.574219 63.5625 76.460938 63.292969 76.371094 63.019531 C 76.304688 62.792969 76.328125 62.542969 76.574219 62.386719 C 77.007812 62.136719 78.457031 62.523438 78.773438 62.976562 C 79.132812 63.496094 79.722656 63.765625 80.335938 63.765625 C 80.515625 63.765625 80.71875 63.835938 80.902344 63.859375 C 81.511719 63.949219 82.03125 63.8125 82.351562 63.222656 C 82.804688 63.539062 83.277344 63.746094 83.820312 63.425781 C 84.230469 63.199219 84.636719 62.953125 85.042969 62.703125 C 85.316406 62.542969 85.609375 62.476562 85.835938 62.679688 C 86.222656 63.042969 86.628906 63.632812 87.105469 63.269531 C 87.421875 63.042969 86.8125 62.5 86.71875 62.046875 C 86.699219 61.910156 86.742188 61.75 86.8125 61.640625 C 86.945312 61.390625 87.128906 61.546875 87.285156 61.617188 C 87.375 61.660156 87.445312 61.730469 87.511719 61.773438 C 87.785156 61.933594 88.035156 62 88.28125 61.730469 C 88.507812 61.503906 88.28125 61.320312 88.238281 61.09375 C 88.035156 60.28125 87.398438 59.601562 87.511719 58.671875 C 87.535156 58.421875 87.332031 58.21875 87.105469 58.128906 C 86.628906 57.949219 86.359375 57.5625 86.019531 57.199219 C 85.679688 56.839844 85.316406 56.679688 84.773438 56.632812 C 82.804688 56.429688 80.878906 56.136719 78.886719 56.203125 C 78.230469 56.226562 77.617188 56.40625 76.960938 56.386719 C 75.398438 56.316406 73.859375 56.726562 72.339844 56.996094 C 71.640625 57.132812 71.027344 57.472656 70.304688 57.109375 C 70.191406 57.066406 70.03125 57.132812 69.894531 57.179688 C 68.808594 57.496094 67.722656 57.335938 66.613281 57.359375 C 66.113281 57.382812 65.527344 57.425781 65.230469 56.816406 C 65.140625 56.613281 64.871094 56.542969 64.757812 56.679688 C 64.304688 57.179688 63.667969 56.859375 63.125 57.066406 C 62.265625 57.40625 61.472656 57.179688 60.816406 56.519531 C 60.636719 56.316406 60.386719 56.25 60.183594 56.316406 C 59.707031 56.5 59.320312 57.609375 58.753906 56.40625 C 58.6875 56.453125 58.574219 56.5 58.527344 56.566406 C 58.167969 57.15625 57.714844 57.066406 57.078125 57.019531 C 56.265625 56.972656 55.402344 57.019531 54.589844 57.042969 C 53.84375 57.066406 53.09375 56.769531 52.371094 56.972656 C 50.015625 57.628906 47.570312 57.515625 45.191406 57.742188 C 42.925781 57.96875 40.730469 58.558594 38.488281 58.855469 C 37.765625 58.945312 37.0625 58.832031 36.359375 58.988281 C 35.296875 59.214844 34.234375 59.351562 33.144531 59.464844 C 31.96875 59.601562 30.769531 59.738281 29.589844 59.78125 C 28.910156 59.804688 28.277344 60.191406 27.667969 60.191406 C 26.171875 60.167969 24.789062 60.460938 23.476562 61.117188 C 22.570312 61.59375 21.53125 61.390625 20.601562 61.730469 Z M 89.800781 64.21875 C 89.6875 63.972656 89.371094 63.902344 89.234375 64.175781 C 88.960938 64.71875 88.53125 65.125 88.167969 65.578125 C 88.011719 65.78125 88.148438 65.917969 88.375 65.984375 C 89.050781 66.054688 90.070312 64.808594 89.800781 64.21875 Z M -3.898438 64.742188 C -3.832031 65.195312 -3.582031 65.714844 -3.195312 65.625 C -2.675781 65.488281 -2.902344 64.988281 -3.128906 64.605469 C -3.195312 64.492188 -3.242188 64.332031 -3.21875 64.21875 C -3.195312 63.949219 -3.265625 63.765625 -3.582031 63.765625 C -3.96875 63.765625 -4.035156 64.015625 -3.988281 64.332031 C -3.945312 64.46875 -3.921875 64.605469 -3.898438 64.742188 Z M -1.089844 63.902344 C -1.113281 63.8125 -1.339844 63.765625 -1.453125 63.765625 C -1.613281 63.765625 -1.679688 63.925781 -1.679688 64.0625 C -1.65625 64.671875 -1.386719 65.214844 -1.160156 65.761719 C -1.113281 65.871094 -0.976562 65.984375 -0.820312 65.917969 C -0.683594 65.851562 -0.617188 65.738281 -0.636719 65.375 C -0.75 65.035156 -0.910156 64.46875 -1.089844 63.902344 Z M 2.441406 60.914062 C 2.167969 60.550781 1.808594 60.527344 1.398438 60.640625 C 1.242188 60.6875 0.832031 61.796875 0.925781 61.886719 C 0.992188 61.957031 1.082031 62 1.152344 62.023438 C 1.421875 62.070312 2.464844 61.433594 2.507812 61.1875 C 2.488281 61.09375 2.488281 60.980469 2.441406 60.914062 Z M 86.109375 65.101562 C 86.132812 65.375 86.246094 65.738281 86.605469 65.625 C 86.945312 65.535156 87.355469 65.398438 87.332031 64.898438 C 87.308594 64.535156 86.992188 64.695312 86.8125 64.648438 C 86.472656 64.628906 86.0625 64.582031 86.109375 65.101562 Z M 73.746094 44.609375 C 73.472656 44.679688 73.15625 44.882812 73.179688 45.289062 C 73.179688 45.585938 73.382812 45.539062 73.5625 45.5625 C 73.882812 45.585938 74.128906 45.492188 74.085938 45.085938 C 74.015625 44.882812 73.949219 44.542969 73.746094 44.609375 Z M 71.503906 44.589844 C 71.570312 44.316406 71.4375 44.066406 71.230469 44.042969 C 70.960938 44 70.710938 44.226562 70.644531 44.476562 C 70.574219 44.722656 70.777344 44.882812 71.027344 44.972656 C 71.300781 44.972656 71.4375 44.835938 71.503906 44.589844 Z M 82.238281 64.785156 C 82.238281 64.515625 82.144531 64.355469 81.851562 64.332031 C 81.488281 64.3125 81.355469 64.515625 81.375 64.855469 C 81.375 65.171875 81.511719 65.375 81.851562 65.421875 C 82.167969 65.328125 82.238281 65.082031 82.238281 64.785156 Z M 87.195312 45.992188 C 87.195312 46.285156 87.421875 46.378906 87.695312 46.378906 C 87.875 46.378906 88.148438 46.398438 88.148438 46.171875 C 88.167969 45.855469 87.964844 45.675781 87.648438 45.585938 C 87.375 45.5625 87.195312 45.699219 87.195312 45.992188 Z M 0.0859375 60.4375 C 0.109375 60.710938 0.265625 60.890625 0.539062 60.824219 C 0.925781 60.734375 0.902344 60.4375 0.855469 60.144531 C 0.832031 59.941406 0.71875 59.804688 0.515625 59.78125 C 0.199219 59.871094 0.0625 60.121094 0.0859375 60.4375 Z M 20.691406 61.730469 C 20.804688 61.457031 21.191406 61.164062 20.714844 60.890625 C 20.511719 60.777344 20.238281 60.800781 20.035156 60.9375 C 19.855469 61.050781 19.832031 61.277344 19.898438 61.457031 C 20.035156 61.933594 20.398438 61.75 20.714844 61.730469 Z M 85.519531 64.785156 C 85.496094 64.515625 85.269531 64.242188 84.953125 64.265625 C 84.703125 64.265625 84.546875 64.46875 84.546875 64.742188 C 84.546875 65.058594 84.773438 65.101562 85.066406 65.101562 C 85.25 65.082031 85.566406 65.125 85.519531 64.785156 Z M -4.871094 65.035156 C -4.894531 64.855469 -5.03125 64.671875 -5.257812 64.695312 C -5.664062 64.695312 -5.664062 64.988281 -5.664062 65.285156 C -5.664062 65.488281 -5.597656 65.648438 -5.347656 65.667969 C -5.078125 65.535156 -4.828125 65.351562 -4.871094 65.035156 Z M 43.378906 46.761719 C 43.515625 46.738281 43.675781 46.601562 43.605469 46.445312 C 43.492188 46.195312 43.335938 45.902344 42.996094 46.039062 C 42.816406 46.105469 42.679688 46.265625 42.703125 46.46875 C 42.816406 46.828125 43.109375 46.828125 43.378906 46.761719 Z M 0.902344 66.621094 C 0.585938 66.664062 0.585938 66.890625 0.605469 67.140625 C 0.628906 67.34375 0.742188 67.480469 0.96875 67.367188 C 1.171875 67.253906 1.332031 67.097656 1.332031 66.847656 C 1.265625 66.621094 1.105469 66.597656 0.902344 66.621094 Z M -4.171875 60.640625 C -4.328125 60.550781 -4.554688 60.847656 -4.578125 61.09375 C -4.601562 61.367188 -4.398438 61.570312 -4.195312 61.640625 C -4.011719 61.707031 -3.875 61.503906 -3.761719 61.277344 C -3.898438 61.09375 -3.988281 60.753906 -4.171875 60.640625 Z M 68.152344 45.132812 C 67.972656 45.039062 67.769531 45.132812 67.699219 45.289062 C 67.585938 45.515625 67.746094 45.585938 67.949219 45.605469 C 68.128906 45.605469 68.3125 45.652344 68.402344 45.402344 C 68.332031 45.3125 68.265625 45.175781 68.152344 45.132812 Z M 67.746094 56.046875 C 67.699219 55.84375 67.472656 55.636719 67.203125 55.707031 C 66.996094 55.75 66.953125 55.957031 66.953125 56.160156 C 66.953125 56.363281 67.019531 56.519531 67.292969 56.429688 C 67.40625 56.25 67.8125 56.339844 67.746094 56.046875 Z M 84.140625 65.441406 C 83.957031 65.398438 83.753906 65.464844 83.707031 65.667969 C 83.664062 65.894531 83.820312 65.984375 84.027344 66.007812 C 84.207031 66.007812 84.386719 66.03125 84.480469 65.828125 C 84.457031 65.625 84.320312 65.488281 84.140625 65.441406 Z M -7.160156 60.507812 C -7.203125 60.664062 -7.113281 60.800781 -6.980469 60.847656 C -6.773438 60.890625 -6.640625 60.753906 -6.546875 60.574219 C -6.457031 60.371094 -6.570312 60.210938 -6.683594 60.078125 C -6.933594 60.097656 -7.089844 60.257812 -7.160156 60.507812 Z M 86.855469 66.324219 C 86.675781 66.304688 86.605469 66.4375 86.585938 66.574219 C 86.5625 66.800781 86.675781 66.914062 86.902344 66.914062 C 87.058594 66.914062 87.261719 66.960938 87.355469 66.734375 C 87.261719 66.53125 87.128906 66.347656 86.855469 66.324219 Z M 8.828125 60.054688 C 8.734375 60.054688 8.644531 60.078125 8.554688 60.097656 C 8.691406 60.191406 8.804688 60.28125 8.941406 60.347656 C 9.03125 60.394531 9.074219 60.371094 9.097656 60.257812 C 9.097656 60.097656 8.984375 60.054688 8.828125 60.054688 Z M 35.296875 63.835938 C 35.230469 63.859375 35.183594 63.972656 35.183594 64.0625 C 35.183594 64.199219 35.273438 64.21875 35.363281 64.105469 C 35.433594 64.039062 35.476562 63.972656 35.546875 63.902344 C 35.457031 63.859375 35.34375 63.8125 35.296875 63.835938 Z M 35.296875 63.835938 " fill-opacity="1" fill-rule="nonzero"/></g><g fill="#ffffff" fill-opacity="1"><g transform="translate(102.830612, 33.224336)"><g><path d="M 14.148438 -12.917969 C 12.792969 -13.664062 12.027344 -14.101562 11.871094 -14.257812 C 9.90625 -15.519531 9.59375 -16.378906 10.933594 -16.832031 C 11.589844 -16.832031 12.199219 -16.800781 12.761719 -16.738281 L 13.867188 -16.457031 C 14.523438 -16.332031 15.195312 -16.160156 15.894531 -15.972656 C 16.535156 -15.816406 17.035156 -15.878906 17.378906 -16.144531 C 17.394531 -16.144531 17.425781 -16.175781 17.472656 -16.222656 C 17.875 -16.566406 18 -17.050781 17.84375 -17.675781 C 17.691406 -18.28125 17.472656 -18.765625 17.222656 -19.109375 C 17.175781 -19.171875 17.144531 -19.21875 17.113281 -19.25 C 17.207031 -19.5 17.003906 -19.734375 16.503906 -19.953125 C 16.097656 -20.140625 15.738281 -20.308594 15.457031 -20.496094 C 15.148438 -20.636719 14.914062 -20.746094 14.757812 -20.808594 C 14.320312 -20.964844 13.835938 -21.136719 13.289062 -21.308594 C 8.78125 -21.761719 5.507812 -21.152344 3.464844 -19.484375 C 2.292969 -18.53125 1.542969 -17.425781 1.199219 -16.144531 C 0.859375 -14.867188 1.109375 -13.601562 1.964844 -12.339844 C 2.308594 -11.792969 3.695312 -10.699219 6.097656 -9.046875 C 7.769531 -7.894531 8.671875 -7.238281 8.8125 -7.082031 C 8.8125 -7.050781 8.828125 -7.019531 8.84375 -6.988281 C 8.859375 -6.957031 8.875 -6.941406 8.90625 -6.925781 C 9.171875 -6.425781 9.0625 -6.050781 8.578125 -5.773438 C 8.421875 -5.679688 8.300781 -5.617188 8.238281 -5.585938 C 6.847656 -5.289062 5.367188 -5.523438 3.804688 -6.269531 C 3.105469 -6.613281 2.480469 -7.019531 1.949219 -7.488281 C 1.917969 -7.503906 1.886719 -7.519531 1.855469 -7.535156 C 1.824219 -7.550781 1.808594 -7.582031 1.792969 -7.613281 C 1.574219 -7.800781 1.292969 -7.957031 0.984375 -8.113281 C 0.65625 -8.269531 0.40625 -8.144531 0.25 -7.738281 C 0.09375 -7.363281 0 -6.910156 -0.03125 -6.347656 C -0.0625 -5.789062 -0.09375 -5.320312 -0.09375 -4.929688 L -0.09375 -4.804688 C -0.078125 -4.492188 0.046875 -4.195312 0.28125 -3.945312 C 0.28125 -3.914062 0.296875 -3.898438 0.3125 -3.882812 C 0.328125 -3.851562 0.34375 -3.835938 0.375 -3.835938 C 0.375 -3.804688 0.390625 -3.773438 0.40625 -3.757812 L 0.46875 -3.710938 C 0.890625 -3.246094 1.386719 -2.824219 1.980469 -2.464844 L 4.960938 -1.09375 C 5.367188 -0.953125 5.882812 -0.828125 6.472656 -0.703125 C 6.394531 -0.578125 7.175781 -0.453125 8.828125 -0.359375 L 8.84375 -0.375 C 8.84375 -0.375 8.84375 -0.390625 8.859375 -0.40625 C 10.171875 -0.34375 11.449219 -0.4375 12.683594 -0.703125 C 13.898438 -0.953125 14.945312 -1.386719 15.816406 -1.996094 C 17.128906 -2.902344 18.046875 -4.023438 18.5625 -5.367188 C 19.0625 -6.691406 19.046875 -7.894531 18.546875 -8.953125 C 18.046875 -10.015625 17.160156 -10.949219 15.878906 -11.730469 C 15.832031 -11.746094 15.785156 -11.777344 15.753906 -11.808594 Z M 14.148438 -12.917969 "/></g></g></g><g fill="#ffffff" fill-opacity="1"><g transform="translate(124.242936, 33.224336)"><g><path d="M 0.4375 -20.574219 C 0.21875 -20.324219 0.125 -19.953125 0.15625 -19.46875 C 0.1875 -18.984375 0.21875 -18.625 0.25 -18.375 C 0.28125 -17.441406 0.421875 -16.519531 0.671875 -15.644531 C 0.796875 -15.132812 0.921875 -14.679688 1.046875 -14.304688 C 1.171875 -13.914062 1.511719 -13.601562 2.042969 -13.367188 C 2.636719 -13.085938 3.308594 -12.933594 4.023438 -12.902344 C 4.742188 -12.871094 5.429688 -12.839844 6.097656 -12.792969 C 6.441406 -12.761719 6.894531 -12.683594 7.457031 -12.589844 C 8.003906 -12.480469 8.359375 -12.230469 8.515625 -11.824219 C 8.796875 -11.105469 9 -10.421875 9.15625 -9.78125 C 9.46875 -8.484375 9.703125 -7.175781 9.859375 -5.867188 C 10.015625 -4.539062 10.296875 -3.246094 10.699219 -1.980469 C 10.808594 -1.574219 10.980469 -1.140625 11.199219 -0.65625 C 11.308594 -0.375 11.527344 -0.1875 11.855469 -0.109375 C 12.167969 -0.03125 12.464844 0 12.746094 0 C 13.398438 0 14.132812 -0.078125 14.945312 -0.234375 C 15.753906 -0.390625 16.425781 -0.65625 16.988281 -1.0625 C 17.363281 -1.339844 17.566406 -1.792969 17.597656 -2.417969 C 17.628906 -3.570312 17.535156 -4.789062 17.347656 -6.082031 C 17.160156 -7.363281 17.003906 -8.59375 16.878906 -9.765625 C 16.816406 -10.328125 16.707031 -11.011719 16.566406 -11.839844 C 16.410156 -12.667969 16.519531 -13.304688 16.863281 -13.757812 C 17.191406 -14.195312 17.644531 -14.523438 18.234375 -14.773438 C 18.8125 -15.007812 19.34375 -15.226562 19.84375 -15.441406 C 20.199219 -15.597656 20.605469 -15.785156 21.074219 -16.003906 C 21.527344 -16.222656 21.855469 -16.519531 22.042969 -16.910156 C 22.324219 -17.535156 22.355469 -18.515625 22.152344 -19.84375 C 21.933594 -21.152344 21.636719 -22.121094 21.230469 -22.710938 C 20.871094 -23.210938 20.324219 -23.429688 19.609375 -23.335938 C 18.96875 -23.242188 18.34375 -23.085938 17.722656 -22.867188 C 17.097656 -22.648438 16.488281 -22.480469 15.863281 -22.355469 C 13.960938 -21.964844 12.058594 -21.589844 10.15625 -21.230469 C 8.238281 -20.855469 6.316406 -20.683594 4.382812 -20.683594 C 3.449219 -20.683594 2.558594 -20.730469 1.714844 -20.839844 C 1.09375 -20.917969 0.65625 -20.824219 0.4375 -20.574219 Z M 0.4375 -20.574219 "/></g></g></g><g fill="#ffffff" fill-opacity="1"><g transform="translate(149.772521, 33.224336)"><g><path d="M 0.28125 -18.203125 C 0.125 -16.550781 0.171875 -14.820312 0.421875 -13.042969 C 0.65625 -11.261719 0.9375 -9.59375 1.277344 -8.066406 C 1.292969 -7.941406 1.308594 -7.816406 1.339844 -7.691406 C 1.371094 -7.566406 1.402344 -7.457031 1.433594 -7.347656 C 1.558594 -6.691406 1.886719 -5.523438 2.386719 -3.804688 C 2.886719 -2.089844 3.355469 -1.03125 3.773438 -0.59375 C 3.960938 -0.359375 4.210938 -0.21875 4.492188 -0.15625 C 4.773438 -0.09375 5.070312 -0.0625 5.351562 -0.046875 C 5.742188 -0.015625 6.175781 0 6.675781 0 C 7.175781 0 7.613281 -0.03125 8.019531 -0.09375 C 8.359375 -0.125 8.609375 -0.203125 8.765625 -0.328125 C 8.921875 -0.453125 8.984375 -0.71875 8.921875 -1.125 C 8.796875 -1.777344 8.671875 -2.761719 8.5625 -4.101562 C 8.453125 -5.429688 8.671875 -6.347656 9.21875 -6.863281 C 9.71875 -7.332031 10.1875 -7.488281 10.625 -7.332031 C 11.058594 -7.175781 11.480469 -6.894531 11.902344 -6.488281 C 12.621094 -5.710938 13.570312 -4.632812 14.789062 -3.261719 C 16.003906 -1.886719 17.191406 -0.96875 18.34375 -0.515625 C 19.078125 -0.203125 19.75 -0.25 20.339844 -0.625 C 20.792969 -0.90625 21.292969 -1.277344 21.824219 -1.761719 C 22.355469 -2.246094 22.757812 -2.714844 23.070312 -3.152344 C 23.429688 -3.664062 23.335938 -4.085938 22.804688 -4.429688 C 22.617188 -4.523438 22.355469 -4.679688 21.980469 -4.898438 C 21.824219 -4.976562 21.683594 -5.054688 21.542969 -5.132812 C 21.402344 -5.210938 21.261719 -5.304688 21.136719 -5.398438 C 20.761719 -5.617188 20.480469 -5.789062 20.308594 -5.914062 C 19.96875 -6.128906 19.71875 -6.316406 19.53125 -6.472656 C 19.296875 -6.644531 19.0625 -6.847656 18.84375 -7.097656 C 18.625 -7.300781 18.453125 -7.535156 18.296875 -7.816406 C 18.140625 -8.066406 18.015625 -8.328125 17.921875 -8.609375 C 17.800781 -8.890625 17.738281 -9.203125 17.738281 -9.546875 C 17.707031 -10 17.828125 -10.421875 18.140625 -10.824219 C 18.484375 -11.261719 18.875 -11.652344 19.328125 -11.996094 C 19.765625 -12.339844 20.125 -12.777344 20.386719 -13.304688 C 21.011719 -14.554688 21.027344 -15.878906 20.449219 -17.253906 C 19.875 -18.625 19.09375 -19.765625 18.109375 -20.636719 C 15.957031 -22.511719 13.320312 -23.367188 10.1875 -23.195312 C 7.050781 -23.023438 4.351562 -22.292969 2.074219 -20.980469 C 1.214844 -20.480469 0.71875 -20.09375 0.578125 -19.828125 C 0.4375 -19.546875 0.34375 -19.015625 0.28125 -18.203125 Z M 12.496094 -17.890625 C 13.011719 -17.738281 13.445312 -17.425781 13.820312 -16.972656 C 14.304688 -16.316406 14.398438 -15.613281 14.117188 -14.882812 C 13.820312 -14.148438 13.335938 -13.632812 12.683594 -13.320312 C 12.277344 -13.132812 11.855469 -12.996094 11.402344 -12.902344 C 10.949219 -12.808594 10.515625 -12.730469 10.09375 -12.699219 C 9.203125 -12.621094 8.515625 -12.855469 8.050781 -13.414062 C 7.816406 -13.664062 7.660156 -14.164062 7.566406 -14.898438 C 7.472656 -15.613281 7.488281 -16.160156 7.613281 -16.503906 C 7.832031 -17.082031 8.253906 -17.488281 8.859375 -17.722656 C 10.109375 -18.15625 11.324219 -18.21875 12.496094 -17.890625 Z M 12.496094 -17.890625 "/></g></g></g><g fill="#ffffff" fill-opacity="1"><g transform="translate(176.502976, 33.224336)"><g><path d="M 2.277344 -22.277344 C 1.902344 -22.089844 1.605469 -21.808594 1.386719 -21.417969 C 1.109375 -20.917969 0.875 -20.246094 0.71875 -19.421875 C 0.53125 -18.484375 0.4375 -17.300781 0.4375 -15.832031 C 0.4375 -14.367188 0.5 -12.855469 0.65625 -11.292969 C 0.796875 -9.734375 1 -8.222656 1.277344 -6.753906 C 1.558594 -5.289062 1.886719 -4.085938 2.261719 -3.167969 C 2.449219 -2.667969 2.699219 -2.167969 3.011719 -1.667969 C 3.324219 -1.171875 3.742188 -0.8125 4.304688 -0.59375 C 5.054688 -0.28125 6.160156 -0.171875 7.644531 -0.265625 C 9.125 -0.34375 10.328125 -0.421875 11.261719 -0.484375 C 12.792969 -0.546875 14.273438 -0.6875 15.707031 -0.875 C 17.144531 -1.0625 18.328125 -1.292969 19.265625 -1.574219 C 19.890625 -1.761719 20.371094 -1.949219 20.730469 -2.136719 C 21.261719 -2.417969 21.636719 -2.746094 21.855469 -3.121094 C 22.230469 -3.757812 22.355469 -4.710938 22.261719 -5.988281 C 22.199219 -6.550781 22.074219 -7.035156 21.855469 -7.457031 C 21.636719 -7.863281 21.277344 -8.066406 20.792969 -8.035156 C 20.558594 -8.003906 20.292969 -7.957031 20 -7.878906 C 19.859375 -7.832031 19.71875 -7.785156 19.59375 -7.738281 C 19.46875 -7.675781 19.34375 -7.644531 19.21875 -7.613281 C 18 -7.238281 16.691406 -6.925781 15.273438 -6.675781 C 13.851562 -6.425781 12.402344 -6.253906 10.933594 -6.144531 C 10.546875 -6.113281 10.203125 -6.082031 9.90625 -6.050781 C 9.609375 -6.019531 9.34375 -6.003906 9.109375 -6.003906 C 8.796875 -6.988281 8.5625 -7.988281 8.375 -8.984375 C 9.796875 -9.09375 11.214844 -9.28125 12.652344 -9.5625 C 14.070312 -9.828125 14.960938 -10.203125 15.304688 -10.671875 C 15.582031 -11.042969 15.722656 -11.839844 15.722656 -13.058594 C 15.722656 -14.273438 15.257812 -14.882812 14.289062 -14.914062 C 13.804688 -14.914062 12.933594 -14.867188 11.667969 -14.742188 C 10.390625 -14.617188 9.0625 -14.460938 7.691406 -14.304688 C 7.597656 -15.488281 7.550781 -16.753906 7.582031 -18.0625 C 9.203125 -18.34375 10.792969 -18.515625 12.339844 -18.578125 C 13.867188 -18.640625 15.535156 -18.53125 17.332031 -18.25 C 17.582031 -18.203125 17.84375 -18.15625 18.125 -18.109375 C 18.40625 -18.046875 18.671875 -18.03125 18.953125 -18.0625 C 19.921875 -18.125 20.292969 -18.875 20.09375 -20.292969 C 19.890625 -21.714844 19.625 -22.648438 19.28125 -23.085938 C 18.96875 -23.460938 18.546875 -23.726562 18.015625 -23.882812 C 17.488281 -24.039062 16.972656 -24.164062 16.488281 -24.242188 C 14.570312 -24.507812 12.402344 -24.476562 10 -24.132812 C 7.597656 -23.789062 5.539062 -23.335938 3.835938 -22.773438 C 3.570312 -22.679688 3.308594 -22.585938 3.042969 -22.527344 C 2.761719 -22.464844 2.511719 -22.371094 2.277344 -22.277344 Z M 2.277344 -22.277344 "/></g></g></g><g fill="#ffffff" fill-opacity="1"><g transform="translate(201.970174, 33.224336)"><g><path d="M 2.277344 -22.277344 C 1.902344 -22.089844 1.605469 -21.808594 1.386719 -21.417969 C 1.109375 -20.917969 0.875 -20.246094 0.71875 -19.421875 C 0.53125 -18.484375 0.4375 -17.300781 0.4375 -15.832031 C 0.4375 -14.367188 0.5 -12.855469 0.65625 -11.292969 C 0.796875 -9.734375 1 -8.222656 1.277344 -6.753906 C 1.558594 -5.289062 1.886719 -4.085938 2.261719 -3.167969 C 2.449219 -2.667969 2.699219 -2.167969 3.011719 -1.667969 C 3.324219 -1.171875 3.742188 -0.8125 4.304688 -0.59375 C 5.054688 -0.28125 6.160156 -0.171875 7.644531 -0.265625 C 9.125 -0.34375 10.328125 -0.421875 11.261719 -0.484375 C 12.792969 -0.546875 14.273438 -0.6875 15.707031 -0.875 C 17.144531 -1.0625 18.328125 -1.292969 19.265625 -1.574219 C 19.890625 -1.761719 20.371094 -1.949219 20.730469 -2.136719 C 21.261719 -2.417969 21.636719 -2.746094 21.855469 -3.121094 C 22.230469 -3.757812 22.355469 -4.710938 22.261719 -5.988281 C 22.199219 -6.550781 22.074219 -7.035156 21.855469 -7.457031 C 21.636719 -7.863281 21.277344 -8.066406 20.792969 -8.035156 C 20.558594 -8.003906 20.292969 -7.957031 20 -7.878906 C 19.859375 -7.832031 19.71875 -7.785156 19.59375 -7.738281 C 19.46875 -7.675781 19.34375 -7.644531 19.21875 -7.613281 C 18 -7.238281 16.691406 -6.925781 15.273438 -6.675781 C 13.851562 -6.425781 12.402344 -6.253906 10.933594 -6.144531 C 10.546875 -6.113281 10.203125 -6.082031 9.90625 -6.050781 C 9.609375 -6.019531 9.34375 -6.003906 9.109375 -6.003906 C 8.796875 -6.988281 8.5625 -7.988281 8.375 -8.984375 C 9.796875 -9.09375 11.214844 -9.28125 12.652344 -9.5625 C 14.070312 -9.828125 14.960938 -10.203125 15.304688 -10.671875 C 15.582031 -11.042969 15.722656 -11.839844 15.722656 -13.058594 C 15.722656 -14.273438 15.257812 -14.882812 14.289062 -14.914062 C 13.804688 -14.914062 12.933594 -14.867188 11.667969 -14.742188 C 10.390625 -14.617188 9.0625 -14.460938 7.691406 -14.304688 C 7.597656 -15.488281 7.550781 -16.753906 7.582031 -18.0625 C 9.203125 -18.34375 10.792969 -18.515625 12.339844 -18.578125 C 13.867188 -18.640625 15.535156 -18.53125 17.332031 -18.25 C 17.582031 -18.203125 17.84375 -18.15625 18.125 -18.109375 C 18.40625 -18.046875 18.671875 -18.03125 18.953125 -18.0625 C 19.921875 -18.125 20.292969 -18.875 20.09375 -20.292969 C 19.890625 -21.714844 19.625 -22.648438 19.28125 -23.085938 C 18.96875 -23.460938 18.546875 -23.726562 18.015625 -23.882812 C 17.488281 -24.039062 16.972656 -24.164062 16.488281 -24.242188 C 14.570312 -24.507812 12.402344 -24.476562 10 -24.132812 C 7.597656 -23.789062 5.539062 -23.335938 3.835938 -22.773438 C 3.570312 -22.679688 3.308594 -22.585938 3.042969 -22.527344 C 2.761719 -22.464844 2.511719 -22.371094 2.277344 -22.277344 Z M 2.277344 -22.277344 "/></g></g></g><g fill="#ffffff" fill-opacity="1"><g transform="translate(227.437372, 33.224336)"><g><path d="M 0.4375 -20.574219 C 0.21875 -20.324219 0.125 -19.953125 0.15625 -19.46875 C 0.1875 -18.984375 0.21875 -18.625 0.25 -18.375 C 0.28125 -17.441406 0.421875 -16.519531 0.671875 -15.644531 C 0.796875 -15.132812 0.921875 -14.679688 1.046875 -14.304688 C 1.171875 -13.914062 1.511719 -13.601562 2.042969 -13.367188 C 2.636719 -13.085938 3.308594 -12.933594 4.023438 -12.902344 C 4.742188 -12.871094 5.429688 -12.839844 6.097656 -12.792969 C 6.441406 -12.761719 6.894531 -12.683594 7.457031 -12.589844 C 8.003906 -12.480469 8.359375 -12.230469 8.515625 -11.824219 C 8.796875 -11.105469 9 -10.421875 9.15625 -9.78125 C 9.46875 -8.484375 9.703125 -7.175781 9.859375 -5.867188 C 10.015625 -4.539062 10.296875 -3.246094 10.699219 -1.980469 C 10.808594 -1.574219 10.980469 -1.140625 11.199219 -0.65625 C 11.308594 -0.375 11.527344 -0.1875 11.855469 -0.109375 C 12.167969 -0.03125 12.464844 0 12.746094 0 C 13.398438 0 14.132812 -0.078125 14.945312 -0.234375 C 15.753906 -0.390625 16.425781 -0.65625 16.988281 -1.0625 C 17.363281 -1.339844 17.566406 -1.792969 17.597656 -2.417969 C 17.628906 -3.570312 17.535156 -4.789062 17.347656 -6.082031 C 17.160156 -7.363281 17.003906 -8.59375 16.878906 -9.765625 C 16.816406 -10.328125 16.707031 -11.011719 16.566406 -11.839844 C 16.410156 -12.667969 16.519531 -13.304688 16.863281 -13.757812 C 17.191406 -14.195312 17.644531 -14.523438 18.234375 -14.773438 C 18.8125 -15.007812 19.34375 -15.226562 19.84375 -15.441406 C 20.199219 -15.597656 20.605469 -15.785156 21.074219 -16.003906 C 21.527344 -16.222656 21.855469 -16.519531 22.042969 -16.910156 C 22.324219 -17.535156 22.355469 -18.515625 22.152344 -19.84375 C 21.933594 -21.152344 21.636719 -22.121094 21.230469 -22.710938 C 20.871094 -23.210938 20.324219 -23.429688 19.609375 -23.335938 C 18.96875 -23.242188 18.34375 -23.085938 17.722656 -22.867188 C 17.097656 -22.648438 16.488281 -22.480469 15.863281 -22.355469 C 13.960938 -21.964844 12.058594 -21.589844 10.15625 -21.230469 C 8.238281 -20.855469 6.316406 -20.683594 4.382812 -20.683594 C 3.449219 -20.683594 2.558594 -20.730469 1.714844 -20.839844 C 1.09375 -20.917969 0.65625 -20.824219 0.4375 -20.574219 Z M 0.4375 -20.574219 "/></g></g></g><g fill="#004aad" fill-opacity="1"><g transform="translate(149.784497, 58.508356)"><g><path d="M 12.992188 -16.300781 C 12.179688 -16.472656 11.351562 -16.570312 10.503906 -16.570312 C 9.65625 -16.570312 8.816406 -16.503906 8.011719 -16.375 C 7.035156 -16.210938 6.035156 -15.929688 4.992188 -15.539062 C 3.945312 -15.136719 3.023438 -14.539062 2.195312 -13.742188 C 0.542969 -12.15625 -0.0234375 -10.1875 0.476562 -7.828125 C 0.78125 -6.296875 1.402344 -4.902344 2.335938 -3.664062 C 2.839844 -2.980469 3.414062 -2.402344 4.066406 -1.933594 C 4.71875 -1.46875 5.414062 -1.097656 6.132812 -0.816406 C 7.035156 -0.445312 7.980469 -0.21875 8.96875 -0.128906 C 9.710938 -0.0664062 10.449219 -0.0664062 11.199219 -0.128906 C 11.9375 -0.195312 12.6875 -0.425781 13.429688 -0.816406 C 13.6875 -0.945312 13.960938 -1.121094 14.242188 -1.316406 C 14.636719 -1.597656 15.09375 -2 15.613281 -2.535156 C 16.136719 -3.054688 16.148438 -3.589844 15.648438 -4.132812 C 14.765625 -5.046875 13.886719 -5.230469 13.015625 -4.695312 C 12.132812 -4.152344 11.296875 -3.847656 10.503906 -3.773438 C 9.460938 -3.664062 8.425781 -3.828125 7.425781 -4.242188 C 6.414062 -4.652344 5.753906 -5.339844 5.425781 -6.296875 C 4.96875 -7.589844 4.96875 -8.621094 5.414062 -9.40625 C 5.859375 -10.175781 6.492188 -10.753906 7.316406 -11.125 C 8.144531 -11.492188 9.023438 -11.6875 9.960938 -11.722656 C 10.894531 -11.753906 11.632812 -11.679688 12.179688 -11.503906 C 12.4375 -11.417969 12.699219 -11.320312 12.972656 -11.230469 C 13.242188 -11.132812 13.527344 -11.089844 13.808594 -11.089844 C 14.113281 -11.089844 14.441406 -11.382812 14.777344 -11.972656 C 15.003906 -12.375 15.15625 -12.808594 15.246094 -13.277344 C 15.320312 -13.734375 15.363281 -14.199219 15.363281 -14.667969 C 15.363281 -15.058594 15.125 -15.40625 14.644531 -15.699219 C 14.234375 -15.941406 13.6875 -16.136719 12.992188 -16.300781 Z M 12.992188 -16.300781 "/></g></g></g><g fill="#004aad" fill-opacity="1"><g transform="translate(167.938293, 58.508356)"><g><path d="M 0.835938 -9.6875 C 0.261719 -8.546875 0 -7.285156 0.0546875 -5.902344 C 0.0976562 -4.949219 0.28125 -4.109375 0.628906 -3.402344 C 0.980469 -2.664062 1.488281 -2.054688 2.140625 -1.578125 C 2.792969 -1.097656 3.511719 -0.738281 4.273438 -0.476562 C 5.273438 -0.128906 6.304688 0 7.382812 -0.0859375 C 8.449219 -0.195312 9.4375 -0.511719 10.351562 -1.054688 C 11.265625 -1.585938 12.089844 -2.25 12.808594 -3.035156 C 13.289062 -3.554688 13.742188 -4.144531 14.191406 -4.804688 C 14.636719 -5.46875 14.972656 -6.152344 15.210938 -6.851562 C 15.582031 -8.003906 15.710938 -9.296875 15.601562 -10.730469 C 15.558594 -11.144531 15.484375 -11.558594 15.398438 -11.980469 C 15.308594 -12.394531 15.167969 -12.796875 14.972656 -13.167969 C 14.667969 -13.734375 14.210938 -14.242188 13.625 -14.722656 C 13.027344 -15.191406 12.429688 -15.515625 11.820312 -15.691406 C 10.558594 -16.050781 9.242188 -16.050781 7.871094 -15.679688 C 6.273438 -15.246094 4.847656 -14.472656 3.609375 -13.363281 C 3.414062 -13.1875 3.207031 -12.992188 3.011719 -12.796875 C 2.542969 -12.339844 2.132812 -11.839844 1.785156 -11.320312 C 1.433594 -10.796875 1.121094 -10.253906 0.835938 -9.6875 Z M 5.089844 -7.371094 C 5.089844 -8.089844 5.285156 -8.601562 5.675781 -8.882812 C 6.066406 -9.167969 6.523438 -9.285156 7.035156 -9.21875 C 7.546875 -9.15625 8.046875 -8.9375 8.535156 -8.566406 C 9.015625 -8.199219 9.351562 -7.742188 9.535156 -7.175781 C 9.6875 -6.675781 9.710938 -6.199219 9.601562 -5.742188 C 9.492188 -5.285156 9.175781 -4.925781 8.65625 -4.664062 C 7.851562 -4.25 7.046875 -4.425781 6.261719 -5.1875 C 5.480469 -5.9375 5.089844 -6.664062 5.089844 -7.371094 Z M 5.089844 -7.371094 "/></g></g></g><g fill="#004aad" fill-opacity="1"><g transform="translate(185.852932, 58.508356)"><g><path d="M 5.796875 -16.210938 C 5.644531 -16.308594 5.382812 -16.417969 5.011719 -16.527344 C 4.707031 -16.59375 4.359375 -16.636719 3.992188 -16.667969 C 3.609375 -16.703125 3.273438 -16.679688 2.980469 -16.601562 C 2.71875 -16.539062 2.5 -16.386719 2.304688 -16.148438 C 2.042969 -15.820312 1.816406 -15.398438 1.632812 -14.875 C 1.390625 -14.265625 1.164062 -13.472656 0.957031 -12.484375 C 0.75 -11.480469 0.578125 -10.449219 0.445312 -9.363281 C 0.316406 -8.273438 0.226562 -7.207031 0.183594 -6.175781 C 0.140625 -5.144531 0.175781 -4.285156 0.28125 -3.609375 C 0.328125 -3.261719 0.402344 -2.890625 0.523438 -2.5 C 0.640625 -2.109375 0.859375 -1.804688 1.164062 -1.585938 C 1.5 -1.328125 2.230469 -1.097656 3.359375 -0.914062 C 4.480469 -0.726562 5.078125 -0.988281 5.164062 -1.683594 C 5.175781 -1.871094 5.164062 -2.066406 5.121094 -2.261719 C 5.078125 -2.457031 5.054688 -2.652344 5.035156 -2.847656 C 4.828125 -4.109375 4.75 -5.492188 4.816406 -7.003906 C 4.882812 -8.515625 5.035156 -10.003906 5.296875 -11.472656 C 6.296875 -9.992188 7.164062 -8.558594 7.914062 -7.164062 C 8.664062 -5.773438 9.351562 -4.230469 9.960938 -2.511719 C 10.003906 -2.164062 10.089844 -1.816406 10.222656 -1.46875 C 10.339844 -1.109375 10.546875 -0.828125 10.828125 -0.621094 C 10.992188 -0.488281 11.285156 -0.359375 11.710938 -0.226562 C 12.132812 -0.0976562 12.570312 -0.0117188 13.015625 0.03125 C 13.460938 0.0742188 13.863281 0.0429688 14.222656 -0.0546875 C 14.582031 -0.152344 14.777344 -0.378906 14.820312 -0.726562 C 14.832031 -0.902344 14.820312 -1.097656 14.789062 -1.292969 C 14.746094 -1.488281 14.710938 -1.683594 14.691406 -1.882812 C 14.40625 -3.664062 14.375 -5.664062 14.601562 -7.894531 C 14.832031 -10.113281 15.210938 -12.132812 15.753906 -13.960938 C 15.90625 -14.484375 15.863281 -14.851562 15.648438 -15.070312 C 15.417969 -15.289062 15.09375 -15.449219 14.667969 -15.558594 C 14.363281 -15.625 14.027344 -15.667969 13.644531 -15.699219 C 13.265625 -15.734375 12.929688 -15.710938 12.632812 -15.648438 C 12.382812 -15.570312 12.167969 -15.417969 11.972656 -15.179688 C 11.722656 -14.863281 11.492188 -14.441406 11.285156 -13.917969 C 11.113281 -13.492188 10.949219 -12.972656 10.796875 -12.351562 C 10.644531 -11.730469 10.515625 -11.070312 10.394531 -10.351562 C 9.382812 -11.960938 8.371094 -13.394531 7.371094 -14.65625 C 7.175781 -14.886719 6.96875 -15.113281 6.761719 -15.351562 C 6.546875 -15.582031 6.339844 -15.789062 6.121094 -15.984375 C 6.011719 -16.070312 5.902344 -16.148438 5.796875 -16.210938 Z M 5.796875 -16.210938 "/></g></g></g><g fill="#004aad" fill-opacity="1"><g transform="translate(203.984986, 58.508356)"><g><path d="M 5.796875 -16.210938 C 5.644531 -16.308594 5.382812 -16.417969 5.011719 -16.527344 C 4.707031 -16.59375 4.359375 -16.636719 3.992188 -16.667969 C 3.609375 -16.703125 3.273438 -16.679688 2.980469 -16.601562 C 2.71875 -16.539062 2.5 -16.386719 2.304688 -16.148438 C 2.042969 -15.820312 1.816406 -15.398438 1.632812 -14.875 C 1.390625 -14.265625 1.164062 -13.472656 0.957031 -12.484375 C 0.75 -11.480469 0.578125 -10.449219 0.445312 -9.363281 C 0.316406 -8.273438 0.226562 -7.207031 0.183594 -6.175781 C 0.140625 -5.144531 0.175781 -4.285156 0.28125 -3.609375 C 0.328125 -3.261719 0.402344 -2.890625 0.523438 -2.5 C 0.640625 -2.109375 0.859375 -1.804688 1.164062 -1.585938 C 1.5 -1.328125 2.230469 -1.097656 3.359375 -0.914062 C 4.480469 -0.726562 5.078125 -0.988281 5.164062 -1.683594 C 5.175781 -1.871094 5.164062 -2.066406 5.121094 -2.261719 C 5.078125 -2.457031 5.054688 -2.652344 5.035156 -2.847656 C 4.828125 -4.109375 4.75 -5.492188 4.816406 -7.003906 C 4.882812 -8.515625 5.035156 -10.003906 5.296875 -11.472656 C 6.296875 -9.992188 7.164062 -8.558594 7.914062 -7.164062 C 8.664062 -5.773438 9.351562 -4.230469 9.960938 -2.511719 C 10.003906 -2.164062 10.089844 -1.816406 10.222656 -1.46875 C 10.339844 -1.109375 10.546875 -0.828125 10.828125 -0.621094 C 10.992188 -0.488281 11.285156 -0.359375 11.710938 -0.226562 C 12.132812 -0.0976562 12.570312 -0.0117188 13.015625 0.03125 C 13.460938 0.0742188 13.863281 0.0429688 14.222656 -0.0546875 C 14.582031 -0.152344 14.777344 -0.378906 14.820312 -0.726562 C 14.832031 -0.902344 14.820312 -1.097656 14.789062 -1.292969 C 14.746094 -1.488281 14.710938 -1.683594 14.691406 -1.882812 C 14.40625 -3.664062 14.375 -5.664062 14.601562 -7.894531 C 14.832031 -10.113281 15.210938 -12.132812 15.753906 -13.960938 C 15.90625 -14.484375 15.863281 -14.851562 15.648438 -15.070312 C 15.417969 -15.289062 15.09375 -15.449219 14.667969 -15.558594 C 14.363281 -15.625 14.027344 -15.667969 13.644531 -15.699219 C 13.265625 -15.734375 12.929688 -15.710938 12.632812 -15.648438 C 12.382812 -15.570312 12.167969 -15.417969 11.972656 -15.179688 C 11.722656 -14.863281 11.492188 -14.441406 11.285156 -13.917969 C 11.113281 -13.492188 10.949219 -12.972656 10.796875 -12.351562 C 10.644531 -11.730469 10.515625 -11.070312 10.394531 -10.351562 C 9.382812 -11.960938 8.371094 -13.394531 7.371094 -14.65625 C 7.175781 -14.886719 6.96875 -15.113281 6.761719 -15.351562 C 6.546875 -15.582031 6.339844 -15.789062 6.121094 -15.984375 C 6.011719 -16.070312 5.902344 -16.148438 5.796875 -16.210938 Z M 5.796875 -16.210938 "/></g></g></g><g fill="#004aad" fill-opacity="1"><g transform="translate(222.11704, 58.508356)"><g><path d="M 1.585938 -15.527344 C 1.328125 -15.398438 1.121094 -15.199219 0.96875 -14.929688 C 0.773438 -14.582031 0.609375 -14.113281 0.5 -13.539062 C 0.371094 -12.886719 0.304688 -12.058594 0.304688 -11.035156 C 0.304688 -10.015625 0.347656 -8.960938 0.457031 -7.871094 C 0.554688 -6.785156 0.695312 -5.730469 0.890625 -4.707031 C 1.085938 -3.6875 1.316406 -2.847656 1.578125 -2.207031 C 1.707031 -1.859375 1.882812 -1.511719 2.097656 -1.164062 C 2.316406 -0.816406 2.609375 -0.566406 3 -0.414062 C 3.523438 -0.195312 4.296875 -0.121094 5.328125 -0.183594 C 6.359375 -0.238281 7.199219 -0.292969 7.851562 -0.335938 C 8.917969 -0.378906 9.949219 -0.476562 10.949219 -0.609375 C 11.949219 -0.738281 12.777344 -0.902344 13.429688 -1.097656 C 13.863281 -1.230469 14.199219 -1.359375 14.449219 -1.488281 C 14.820312 -1.683594 15.082031 -1.914062 15.234375 -2.175781 C 15.496094 -2.621094 15.582031 -3.285156 15.515625 -4.175781 C 15.472656 -4.566406 15.386719 -4.902344 15.234375 -5.199219 C 15.082031 -5.480469 14.832031 -5.621094 14.492188 -5.601562 C 14.332031 -5.578125 14.144531 -5.546875 13.941406 -5.492188 C 13.839844 -5.457031 13.742188 -5.425781 13.65625 -5.394531 C 13.570312 -5.351562 13.484375 -5.328125 13.394531 -5.304688 C 12.546875 -5.046875 11.632812 -4.828125 10.644531 -4.652344 C 9.65625 -4.480469 8.644531 -4.359375 7.621094 -4.285156 C 7.351562 -4.261719 7.109375 -4.242188 6.90625 -4.21875 C 6.699219 -4.195312 6.511719 -4.1875 6.351562 -4.1875 C 6.132812 -4.871094 5.96875 -5.566406 5.839844 -6.261719 C 6.828125 -6.339844 7.816406 -6.46875 8.816406 -6.664062 C 9.808594 -6.851562 10.425781 -7.109375 10.667969 -7.4375 C 10.863281 -7.699219 10.960938 -8.253906 10.960938 -9.101562 C 10.960938 -9.949219 10.632812 -10.375 9.960938 -10.394531 C 9.621094 -10.394531 9.015625 -10.363281 8.132812 -10.273438 C 7.242188 -10.1875 6.316406 -10.078125 5.359375 -9.972656 C 5.296875 -10.796875 5.261719 -11.679688 5.285156 -12.589844 C 6.414062 -12.785156 7.523438 -12.90625 8.601562 -12.949219 C 9.667969 -12.992188 10.828125 -12.917969 12.082031 -12.722656 C 12.253906 -12.6875 12.4375 -12.65625 12.632812 -12.625 C 12.832031 -12.582031 13.015625 -12.570312 13.210938 -12.589844 C 13.886719 -12.632812 14.144531 -13.15625 14.003906 -14.144531 C 13.863281 -15.136719 13.679688 -15.789062 13.4375 -16.09375 C 13.222656 -16.351562 12.929688 -16.539062 12.558594 -16.648438 C 12.1875 -16.753906 11.832031 -16.84375 11.492188 -16.898438 C 10.15625 -17.082031 8.644531 -17.058594 6.96875 -16.820312 C 5.296875 -16.582031 3.859375 -16.265625 2.675781 -15.875 C 2.488281 -15.808594 2.304688 -15.746094 2.121094 -15.699219 C 1.925781 -15.65625 1.75 -15.59375 1.585938 -15.527344 Z M 1.585938 -15.527344 "/></g></g></g><g fill="#004aad" fill-opacity="1"><g transform="translate(239.868612, 58.508356)"><g><path d="M 12.992188 -16.300781 C 12.179688 -16.472656 11.351562 -16.570312 10.503906 -16.570312 C 9.65625 -16.570312 8.816406 -16.503906 8.011719 -16.375 C 7.035156 -16.210938 6.035156 -15.929688 4.992188 -15.539062 C 3.945312 -15.136719 3.023438 -14.539062 2.195312 -13.742188 C 0.542969 -12.15625 -0.0234375 -10.1875 0.476562 -7.828125 C 0.78125 -6.296875 1.402344 -4.902344 2.335938 -3.664062 C 2.839844 -2.980469 3.414062 -2.402344 4.066406 -1.933594 C 4.71875 -1.46875 5.414062 -1.097656 6.132812 -0.816406 C 7.035156 -0.445312 7.980469 -0.21875 8.96875 -0.128906 C 9.710938 -0.0664062 10.449219 -0.0664062 11.199219 -0.128906 C 11.9375 -0.195312 12.6875 -0.425781 13.429688 -0.816406 C 13.6875 -0.945312 13.960938 -1.121094 14.242188 -1.316406 C 14.636719 -1.597656 15.09375 -2 15.613281 -2.535156 C 16.136719 -3.054688 16.148438 -3.589844 15.648438 -4.132812 C 14.765625 -5.046875 13.886719 -5.230469 13.015625 -4.695312 C 12.132812 -4.152344 11.296875 -3.847656 10.503906 -3.773438 C 9.460938 -3.664062 8.425781 -3.828125 7.425781 -4.242188 C 6.414062 -4.652344 5.753906 -5.339844 5.425781 -6.296875 C 4.96875 -7.589844 4.96875 -8.621094 5.414062 -9.40625 C 5.859375 -10.175781 6.492188 -10.753906 7.316406 -11.125 C 8.144531 -11.492188 9.023438 -11.6875 9.960938 -11.722656 C 10.894531 -11.753906 11.632812 -11.679688 12.179688 -11.503906 C 12.4375 -11.417969 12.699219 -11.320312 12.972656 -11.230469 C 13.242188 -11.132812 13.527344 -11.089844 13.808594 -11.089844 C 14.113281 -11.089844 14.441406 -11.382812 14.777344 -11.972656 C 15.003906 -12.375 15.15625 -12.808594 15.246094 -13.277344 C 15.320312 -13.734375 15.363281 -14.199219 15.363281 -14.667969 C 15.363281 -15.058594 15.125 -15.40625 14.644531 -15.699219 C 14.234375 -15.941406 13.6875 -16.136719 12.992188 -16.300781 Z M 12.992188 -16.300781 "/></g></g></g><g fill="#004aad" fill-opacity="1"><g transform="translate(258.022408, 58.508356)"><g><path d="M 0.304688 -14.34375 C 0.152344 -14.167969 0.0859375 -13.90625 0.109375 -13.570312 C 0.128906 -13.234375 0.152344 -12.984375 0.175781 -12.808594 C 0.195312 -12.15625 0.292969 -11.515625 0.46875 -10.90625 C 0.554688 -10.546875 0.640625 -10.230469 0.726562 -9.972656 C 0.816406 -9.699219 1.054688 -9.480469 1.425781 -9.320312 C 1.835938 -9.121094 2.304688 -9.015625 2.804688 -8.992188 C 3.304688 -8.96875 3.785156 -8.949219 4.25 -8.917969 C 4.492188 -8.894531 4.804688 -8.839844 5.199219 -8.773438 C 5.578125 -8.699219 5.828125 -8.523438 5.9375 -8.242188 C 6.132812 -7.742188 6.273438 -7.261719 6.382812 -6.816406 C 6.601562 -5.914062 6.761719 -5 6.871094 -4.089844 C 6.980469 -3.164062 7.175781 -2.261719 7.460938 -1.382812 C 7.535156 -1.097656 7.65625 -0.792969 7.808594 -0.457031 C 7.882812 -0.261719 8.035156 -0.128906 8.265625 -0.0742188 C 8.480469 -0.0234375 8.6875 0 8.882812 0 C 9.339844 0 9.851562 -0.0546875 10.417969 -0.164062 C 10.980469 -0.273438 11.449219 -0.457031 11.839844 -0.738281 C 12.101562 -0.933594 12.242188 -1.25 12.265625 -1.683594 C 12.285156 -2.488281 12.222656 -3.339844 12.089844 -4.242188 C 11.960938 -5.132812 11.851562 -5.992188 11.765625 -6.808594 C 11.722656 -7.199219 11.644531 -7.675781 11.546875 -8.253906 C 11.4375 -8.828125 11.515625 -9.273438 11.753906 -9.589844 C 11.980469 -9.894531 12.296875 -10.121094 12.710938 -10.296875 C 13.113281 -10.460938 13.484375 -10.613281 13.832031 -10.765625 C 14.082031 -10.875 14.363281 -11.003906 14.691406 -11.15625 C 15.003906 -11.308594 15.234375 -11.515625 15.363281 -11.785156 C 15.558594 -12.222656 15.582031 -12.90625 15.441406 -13.832031 C 15.289062 -14.746094 15.082031 -15.417969 14.796875 -15.832031 C 14.546875 -16.179688 14.167969 -16.332031 13.667969 -16.265625 C 13.222656 -16.203125 12.785156 -16.09375 12.351562 -15.941406 C 11.917969 -15.789062 11.492188 -15.667969 11.058594 -15.582031 C 9.730469 -15.308594 8.40625 -15.046875 7.078125 -14.796875 C 5.742188 -14.539062 4.402344 -14.417969 3.054688 -14.417969 C 2.402344 -14.417969 1.785156 -14.449219 1.195312 -14.527344 C 0.761719 -14.582031 0.457031 -14.515625 0.304688 -14.34375 Z M 0.304688 -14.34375 "/></g></g></g><g fill="#004aad" fill-opacity="1"><g transform="translate(275.817457, 58.508356)"><g><path d="M 0.0117188 -3.273438 C 0 -3.164062 0 -3.023438 0.0234375 -2.839844 C 0.0234375 -2.675781 0.0546875 -2.542969 0.0976562 -2.445312 C 0.0976562 -2.382812 0.121094 -2.285156 0.164062 -2.152344 C 0.183594 -2.023438 0.21875 -1.882812 0.261719 -1.730469 C 0.304688 -1.554688 0.347656 -1.414062 0.390625 -1.316406 C 0.433594 -1.183594 0.476562 -1.097656 0.53125 -1.066406 C 0.695312 -0.914062 0.773438 -0.847656 0.773438 -0.859375 C 0.878906 -0.773438 0.980469 -0.707031 1.042969 -0.664062 C 1.175781 -0.578125 1.273438 -0.523438 1.328125 -0.5 C 1.382812 -0.46875 1.480469 -0.433594 1.609375 -0.390625 C 2 -0.304688 2.480469 -0.226562 3.035156 -0.175781 C 3.75 -0.0742188 4.4375 -0.0234375 5.066406 -0.0117188 C 5.414062 0 5.753906 0 6.089844 0 C 6.425781 0 6.742188 -0.03125 7.023438 -0.0742188 C 7.632812 -0.164062 8.035156 -0.316406 8.21875 -0.53125 C 8.316406 -0.652344 8.425781 -0.878906 8.535156 -1.21875 C 8.644531 -1.542969 8.710938 -1.890625 8.730469 -2.25 C 8.753906 -2.640625 8.71875 -2.96875 8.632812 -3.230469 C 8.503906 -3.523438 8.308594 -3.707031 8.046875 -3.773438 C 8.003906 -3.773438 7.949219 -3.773438 7.894531 -3.785156 C 7.839844 -3.792969 7.785156 -3.804688 7.71875 -3.816406 C 7.523438 -3.839844 7.371094 -3.847656 7.242188 -3.871094 C 7.15625 -3.871094 7.058594 -3.871094 6.957031 -3.882812 C 6.859375 -3.894531 6.761719 -3.902344 6.664062 -3.914062 C 6.511719 -3.925781 6.296875 -3.9375 5.992188 -3.957031 C 5.914062 -4.597656 5.871094 -5.328125 5.851562 -6.132812 C 5.816406 -6.871094 5.816406 -7.621094 5.851562 -8.40625 C 5.882812 -9.285156 5.9375 -10.046875 6.003906 -10.699219 C 6.046875 -11.363281 6.144531 -12.113281 6.273438 -12.949219 C 6.707031 -12.929688 7.011719 -12.929688 7.199219 -12.929688 C 7.523438 -12.917969 7.863281 -12.9375 8.199219 -12.984375 C 8.535156 -13.027344 8.71875 -13.289062 8.742188 -13.765625 C 8.742188 -13.917969 8.742188 -14.070312 8.730469 -14.199219 C 8.710938 -14.332031 8.6875 -14.460938 8.664062 -14.601562 C 8.644531 -14.636719 8.621094 -14.734375 8.601562 -14.886719 C 8.535156 -15.125 8.492188 -15.265625 8.492188 -15.308594 C 8.449219 -15.441406 8.414062 -15.570312 8.371094 -15.722656 C 8.328125 -15.832031 8.273438 -15.90625 8.230469 -15.972656 C 8.101562 -16.070312 8.023438 -16.136719 7.980469 -16.179688 L 7.71875 -16.375 C 7.601562 -16.441406 7.503906 -16.496094 7.4375 -16.539062 C 7.308594 -16.59375 7.207031 -16.625 7.144531 -16.648438 C 6.773438 -16.710938 6.304688 -16.789062 5.71875 -16.875 C 5.078125 -16.941406 4.402344 -16.996094 3.695312 -17.027344 C 2.957031 -17.050781 2.304688 -17.027344 1.738281 -16.960938 C 1.128906 -16.875 0.726562 -16.722656 0.542969 -16.503906 C 0.414062 -16.351562 0.316406 -16.125 0.226562 -15.820312 C 0.121094 -15.496094 0.0429688 -15.144531 0.0234375 -14.789062 C 0 -14.375 0.03125 -14.046875 0.128906 -13.808594 C 0.238281 -13.503906 0.425781 -13.320312 0.707031 -13.277344 C 0.816406 -13.242188 0.890625 -13.234375 0.914062 -13.234375 C 1.023438 -13.210938 1.121094 -13.199219 1.183594 -13.199219 C 1.328125 -13.179688 1.433594 -13.167969 1.523438 -13.167969 C 1.597656 -13.15625 1.730469 -13.144531 1.902344 -13.136719 C 1.792969 -12.546875 1.683594 -11.832031 1.597656 -10.980469 C 1.511719 -10.222656 1.445312 -9.425781 1.402344 -8.601562 C 1.347656 -7.65625 1.328125 -6.859375 1.328125 -6.230469 C 1.328125 -5.449219 1.347656 -4.742188 1.390625 -4.109375 L 0.878906 -4.109375 C 0.316406 -4.109375 0.0234375 -3.828125 0.0117188 -3.273438 Z M 0.0117188 -3.273438 "/></g></g></g><g fill="#004aad" fill-opacity="1"><g transform="translate(286.372592, 58.508356)"><g><path d="M 0.835938 -9.6875 C 0.261719 -8.546875 0 -7.285156 0.0546875 -5.902344 C 0.0976562 -4.949219 0.28125 -4.109375 0.628906 -3.402344 C 0.980469 -2.664062 1.488281 -2.054688 2.140625 -1.578125 C 2.792969 -1.097656 3.511719 -0.738281 4.273438 -0.476562 C 5.273438 -0.128906 6.304688 0 7.382812 -0.0859375 C 8.449219 -0.195312 9.4375 -0.511719 10.351562 -1.054688 C 11.265625 -1.585938 12.089844 -2.25 12.808594 -3.035156 C 13.289062 -3.554688 13.742188 -4.144531 14.191406 -4.804688 C 14.636719 -5.46875 14.972656 -6.152344 15.210938 -6.851562 C 15.582031 -8.003906 15.710938 -9.296875 15.601562 -10.730469 C 15.558594 -11.144531 15.484375 -11.558594 15.398438 -11.980469 C 15.308594 -12.394531 15.167969 -12.796875 14.972656 -13.167969 C 14.667969 -13.734375 14.210938 -14.242188 13.625 -14.722656 C 13.027344 -15.191406 12.429688 -15.515625 11.820312 -15.691406 C 10.558594 -16.050781 9.242188 -16.050781 7.871094 -15.679688 C 6.273438 -15.246094 4.847656 -14.472656 3.609375 -13.363281 C 3.414062 -13.1875 3.207031 -12.992188 3.011719 -12.796875 C 2.542969 -12.339844 2.132812 -11.839844 1.785156 -11.320312 C 1.433594 -10.796875 1.121094 -10.253906 0.835938 -9.6875 Z M 5.089844 -7.371094 C 5.089844 -8.089844 5.285156 -8.601562 5.675781 -8.882812 C 6.066406 -9.167969 6.523438 -9.285156 7.035156 -9.21875 C 7.546875 -9.15625 8.046875 -8.9375 8.535156 -8.566406 C 9.015625 -8.199219 9.351562 -7.742188 9.535156 -7.175781 C 9.6875 -6.675781 9.710938 -6.199219 9.601562 -5.742188 C 9.492188 -5.285156 9.175781 -4.925781 8.65625 -4.664062 C 7.851562 -4.25 7.046875 -4.425781 6.261719 -5.1875 C 5.480469 -5.9375 5.089844 -6.664062 5.089844 -7.371094 Z M 5.089844 -7.371094 "/></g></g></g><g fill="#004aad" fill-opacity="1"><g transform="translate(304.287225, 58.508356)"><g><path d="M 5.796875 -16.210938 C 5.644531 -16.308594 5.382812 -16.417969 5.011719 -16.527344 C 4.707031 -16.59375 4.359375 -16.636719 3.992188 -16.667969 C 3.609375 -16.703125 3.273438 -16.679688 2.980469 -16.601562 C 2.71875 -16.539062 2.5 -16.386719 2.304688 -16.148438 C 2.042969 -15.820312 1.816406 -15.398438 1.632812 -14.875 C 1.390625 -14.265625 1.164062 -13.472656 0.957031 -12.484375 C 0.75 -11.480469 0.578125 -10.449219 0.445312 -9.363281 C 0.316406 -8.273438 0.226562 -7.207031 0.183594 -6.175781 C 0.140625 -5.144531 0.175781 -4.285156 0.28125 -3.609375 C 0.328125 -3.261719 0.402344 -2.890625 0.523438 -2.5 C 0.640625 -2.109375 0.859375 -1.804688 1.164062 -1.585938 C 1.5 -1.328125 2.230469 -1.097656 3.359375 -0.914062 C 4.480469 -0.726562 5.078125 -0.988281 5.164062 -1.683594 C 5.175781 -1.871094 5.164062 -2.066406 5.121094 -2.261719 C 5.078125 -2.457031 5.054688 -2.652344 5.035156 -2.847656 C 4.828125 -4.109375 4.75 -5.492188 4.816406 -7.003906 C 4.882812 -8.515625 5.035156 -10.003906 5.296875 -11.472656 C 6.296875 -9.992188 7.164062 -8.558594 7.914062 -7.164062 C 8.664062 -5.773438 9.351562 -4.230469 9.960938 -2.511719 C 10.003906 -2.164062 10.089844 -1.816406 10.222656 -1.46875 C 10.339844 -1.109375 10.546875 -0.828125 10.828125 -0.621094 C 10.992188 -0.488281 11.285156 -0.359375 11.710938 -0.226562 C 12.132812 -0.0976562 12.570312 -0.0117188 13.015625 0.03125 C 13.460938 0.0742188 13.863281 0.0429688 14.222656 -0.0546875 C 14.582031 -0.152344 14.777344 -0.378906 14.820312 -0.726562 C 14.832031 -0.902344 14.820312 -1.097656 14.789062 -1.292969 C 14.746094 -1.488281 14.710938 -1.683594 14.691406 -1.882812 C 14.40625 -3.664062 14.375 -5.664062 14.601562 -7.894531 C 14.832031 -10.113281 15.210938 -12.132812 15.753906 -13.960938 C 15.90625 -14.484375 15.863281 -14.851562 15.648438 -15.070312 C 15.417969 -15.289062 15.09375 -15.449219 14.667969 -15.558594 C 14.363281 -15.625 14.027344 -15.667969 13.644531 -15.699219 C 13.265625 -15.734375 12.929688 -15.710938 12.632812 -15.648438 C 12.382812 -15.570312 12.167969 -15.417969 11.972656 -15.179688 C 11.722656 -14.863281 11.492188 -14.441406 11.285156 -13.917969 C 11.113281 -13.492188 10.949219 -12.972656 10.796875 -12.351562 C 10.644531 -11.730469 10.515625 -11.070312 10.394531 -10.351562 C 9.382812 -11.960938 8.371094 -13.394531 7.371094 -14.65625 C 7.175781 -14.886719 6.96875 -15.113281 6.761719 -15.351562 C 6.546875 -15.582031 6.339844 -15.789062 6.121094 -15.984375 C 6.011719 -16.070312 5.902344 -16.148438 5.796875 -16.210938 Z M 5.796875 -16.210938 "/></g></g></g></svg>